<svg version="1.1" id="Layer_1" xmlns="http://www.w3.org/2000/svg" xmlns:xlink="http://www.w3.org/1999/xlink" x="0px" y="0px"
	 width="100%" height="100%" viewBox="425 276 388 384" preserveAspectRatio="xMidYMid meet" enable-background="new 0 0 1254 1254" xml:space="preserve">
<path fill="none" opacity="1.000000" stroke="none" 
	d="
M479.399811,925.625000 
	C470.141602,923.377869 466.915131,925.856262 467.078430,935.085083 
	C467.092743,935.894897 467.080322,936.705261 467.080322,937.446533 
	C475.393494,941.625916 476.131073,941.634644 479.636444,937.136047 
	C475.408234,938.476501 471.592499,938.722290 469.733948,934.444580 
	C469.143890,933.086487 469.426666,930.137024 470.337524,929.571960 
	C472.816315,928.033997 475.844360,927.381287 478.654724,926.377747 
	C478.832581,926.769958 479.010406,927.162231 479.188263,927.554443 
	C479.458527,926.703247 479.728821,925.852051 479.856720,924.650513 
	C480.109253,924.346558 480.361755,924.042542 480.614258,923.738586 
	C480.689575,923.852539 480.852417,924.037659 480.826660,924.069397 
	C480.566467,924.389221 480.275391,924.684021 479.399811,925.625000 
M1074.263672,727.526794 
	C1063.575439,746.936096 1052.887207,766.345398 1041.930908,786.241333 
	C1056.640137,786.241333 1070.503174,786.241333 1084.515625,786.241333 
	C1085.153931,782.563843 1085.729126,779.250000 1086.541138,774.572266 
	C1077.026611,788.806519 1063.962280,783.065247 1051.252319,784.649292 
	C1062.758301,763.557434 1073.597534,743.687622 1084.764404,723.217346 
	C1080.899780,723.217346 1077.959351,723.217346 1074.094849,723.031860 
	C1064.337524,723.031860 1054.580078,723.031860 1044.452148,723.031860 
	C1043.853760,726.763794 1043.300903,730.211792 1042.936768,732.482483 
	C1046.683472,730.287170 1050.399170,726.840759 1054.660156,725.921143 
	C1060.546143,724.650757 1066.842773,725.228638 1072.964600,725.189880 
	C1073.579224,725.185974 1074.201416,726.387634 1074.263672,727.526794 
M356.096191,723.044983 
	C353.389893,723.073181 350.683563,723.101440 347.573944,722.937256 
	C347.042328,723.088623 346.510712,723.240051 345.979126,723.391479 
	C346.644806,723.947632 347.310516,724.503845 348.238129,725.856506 
	C348.533844,727.818848 349.077026,729.780090 349.085999,731.743774 
	C349.156067,747.060059 349.227722,762.378113 349.029602,777.692139 
	C348.992371,780.568787 347.750916,783.429810 347.011627,786.522156 
	C359.000885,786.522156 371.609985,786.566650 384.217224,786.433472 
	C385.175964,786.423340 386.702820,785.325317 386.965302,784.437317 
	C387.794647,781.631409 388.148315,778.684875 388.522736,776.670959 
	C384.938324,779.010071 381.583099,782.541138 377.619385,783.466980 
	C371.896698,784.803650 365.732605,784.381165 359.757019,784.378601 
	C358.737946,784.378113 356.857513,782.745850 356.834625,781.830994 
	C356.612183,772.941223 356.700897,764.043762 356.700897,754.889648 
	C361.648254,754.889648 365.910706,754.285522 369.900604,755.069153 
	C373.486816,755.773438 376.773743,758.001587 379.481689,759.234009 
	C379.481689,756.076477 379.481689,751.609863 379.481689,746.969727 
	C373.239044,755.937195 364.649475,751.540588 357.003571,752.528748 
	C357.003571,742.891907 357.003571,733.950867 357.936615,725.056946 
	C360.096039,725.048523 362.255493,725.031433 364.414917,725.033203 
	C372.627380,725.039917 381.239899,723.950317 386.511658,734.667603 
	C386.207031,731.295898 385.822144,729.648254 385.958984,728.045166 
	C386.320923,723.805725 384.351868,722.667358 380.385468,722.833008 
	C372.594757,723.158264 364.787628,723.090576 356.096191,723.044983 
M932.092957,723.055481 
	C929.399902,723.086670 926.706909,723.117859 923.388123,722.999695 
	C923.565430,723.726379 923.742798,724.453125 924.126953,726.082275 
	C924.368408,727.886108 924.809875,729.688782 924.819824,731.493896 
	C924.901978,746.301331 925.021729,761.110535 924.843750,775.915833 
	C924.801392,779.437744 923.681519,782.946594 923.108215,786.174744 
	C931.750305,786.174744 941.099243,786.783936 950.339783,786.041931 
	C967.118896,784.694580 978.207520,771.424194 977.999756,753.999634 
	C977.800293,737.263184 966.362244,724.751465 949.870605,723.422974 
	C948.784912,723.335510 947.600647,724.471619 946.497742,725.004028 
	C946.497742,725.004028 946.529663,725.041016 947.019226,724.104492 
	C942.340576,723.794434 937.661865,723.484314 932.092957,723.055481 
M660.079163,723.041260 
	C657.291931,723.041260 654.504700,723.041260 652.233765,723.041260 
	C652.615906,727.339844 653.222412,731.227661 653.260254,735.120972 
	C653.389587,748.439148 653.449890,761.761353 653.242065,775.077454 
	C653.182678,778.883484 652.125183,782.673950 651.541138,786.371521 
	C659.332397,786.371521 667.997009,786.764465 676.613892,786.290710 
	C695.243958,785.266418 707.166504,772.021240 706.741760,753.393250 
	C706.355286,736.442261 693.281006,723.286560 676.488770,723.122314 
	C675.490601,723.112549 674.480103,724.370178 672.769165,725.006409 
	C670.353638,724.324158 667.938049,723.641907 664.611084,722.959412 
	C663.403748,723.036194 662.196472,723.113037 660.079163,723.041260 
M559.441772,368.479126 
	C564.872070,354.458069 570.302368,340.437042 576.229309,325.133820 
	C590.869141,362.015167 604.909912,397.387238 619.230286,433.463684 
	C615.017944,433.463684 611.555481,433.460358 608.093079,433.464569 
	C604.760498,433.468658 601.427979,433.487671 598.095398,433.487030 
	C594.596191,433.486359 591.094421,433.383606 587.598572,433.486755 
	C584.513916,433.577728 581.435730,433.890961 578.354736,434.106049 
	C578.429077,434.758789 578.503357,435.411560 578.577698,436.064331 
	C590.862488,436.064331 603.148865,436.171448 615.431152,435.995300 
	C618.858154,435.946198 620.588440,436.788879 621.969421,440.289276 
	C644.816956,498.203430 667.871216,556.036072 690.849609,613.898621 
	C694.016541,621.873230 697.026001,629.910339 700.493958,638.920349 
	C651.251221,639.252075 602.985474,638.811890 554.703308,640.286072 
	C556.504517,641.561523 558.335938,641.873474 560.167603,641.874634 
	C592.326965,641.895203 624.486450,641.913330 656.645752,641.853027 
	C671.973145,641.824280 687.337036,642.264526 702.620056,641.380859 
	C735.360840,639.487671 761.404297,625.070740 778.846558,597.005066 
	C793.942017,572.715393 797.113892,545.886841 792.818054,518.024536 
	C785.423767,470.064972 748.545471,436.364227 700.227661,433.938293 
	C682.111877,433.028717 663.923645,433.517029 645.768250,433.486816 
	C642.629700,433.481598 640.765991,432.804932 639.462585,429.463806 
	C623.674561,388.994446 607.696106,348.599365 591.756042,308.189392 
	C589.958496,303.632324 588.091736,299.102539 585.976196,293.864777 
	C584.939087,295.295288 584.317688,295.862823 584.048645,296.565338 
	C574.940491,320.344696 565.865906,344.136932 556.366699,368.456451 
	C547.236816,391.863159 538.036682,415.242798 528.992126,438.682434 
	C512.277100,482.000641 495.730042,525.383728 478.954132,568.678223 
	C472.166473,586.195496 466.720642,589.726868 447.925140,590.079651 
	C446.458557,590.107117 444.997284,590.417419 443.533569,590.596313 
	C443.570892,591.123413 443.608246,591.650513 443.645599,592.177612 
	C465.123260,592.177612 486.600952,592.177612 508.078613,592.177612 
	C508.096466,591.580933 508.114319,590.984314 508.132141,590.387634 
	C505.419067,590.278931 502.706940,590.121643 499.992767,590.069458 
	C482.433228,589.731506 477.061066,582.029602 483.357788,565.626892 
	C500.417999,521.185669 517.652283,476.811340 534.761597,432.388885 
	C542.892517,411.277893 550.895996,390.117767 559.441772,368.479126 
M764.041382,760.296997 
	C763.186646,759.339355 762.331848,758.381775 761.324585,757.253418 
	C763.695923,755.859497 765.898132,754.719360 767.935181,753.336060 
	C772.523071,750.220459 774.899048,745.878113 774.897156,740.259399 
	C774.894104,731.283630 769.134644,724.554260 758.982483,723.628418 
	C750.113586,722.819519 741.112488,723.459656 733.065308,723.459656 
	C733.628540,726.288879 734.718567,729.331726 734.760498,732.388916 
	C734.959229,746.880798 734.983887,761.377930 734.805786,775.869934 
	C734.762756,779.371887 733.713196,782.861572 733.156677,786.177124 
	C736.671936,786.177124 740.835327,786.177124 744.552246,786.177124 
	C740.181946,777.047302 743.378296,767.737061 742.268250,758.846558 
	C752.795898,756.563171 754.475525,757.243958 759.614685,765.597107 
	C762.754944,770.701233 765.646179,775.974731 769.042786,780.900818 
	C772.681091,786.177490 777.337158,787.572388 782.320618,786.005493 
	C780.045288,783.409851 777.289734,780.803528 775.185669,777.748474 
	C771.412781,772.270508 768.031677,766.522827 764.041382,760.296997 
M568.583618,726.413513 
	C569.200989,729.600098 570.296997,732.778687 570.350830,735.974731 
	C570.555359,748.123596 570.393433,760.278259 570.430908,772.430542 
	C570.446411,777.438599 570.929810,782.529541 565.853638,786.360901 
	C570.073059,786.360901 573.475159,786.360901 575.725525,786.360901 
	C574.742432,782.504150 573.052002,778.751465 572.952820,774.957275 
	C572.622620,762.313782 572.855530,749.655273 572.897827,737.002625 
	C572.901794,735.816345 573.083496,734.630737 573.258057,732.543152 
	C588.816040,751.406067 603.748352,769.510376 618.680664,787.614685 
	C619.082092,787.429932 619.483521,787.245239 619.884949,787.060486 
	C619.884949,785.472290 619.885986,783.884033 619.884827,782.295837 
	C619.873718,766.481018 619.694031,750.663208 619.968872,734.853394 
	C620.037842,730.889465 621.566650,726.950867 622.348083,723.352783 
	C619.965271,723.352783 616.481934,723.352783 614.398376,723.352783 
	C615.401733,726.638062 617.164551,729.879883 617.258179,733.169128 
	C617.603699,745.312439 617.406311,757.471497 617.381775,769.624573 
	C617.379700,770.658142 617.145630,771.691223 616.934448,773.418701 
	C615.717529,772.138672 615.013062,771.485779 614.409729,770.750061 
	C603.120056,756.982849 591.458984,743.494873 580.748718,729.290100 
	C576.393005,723.513367 571.869690,721.728699 564.942627,723.387878 
	C566.123840,724.316040 567.107361,725.088806 568.583618,726.413513 
M416.670258,727.896606 
	C422.004333,736.143616 427.393097,744.356262 432.612549,752.675110 
	C433.380737,753.899536 434.152252,756.196167 433.559906,757.036194 
	C426.539764,766.992859 420.901428,778.050659 410.986633,786.251404 
	C415.122131,786.251404 419.075470,786.251404 421.729950,786.251404 
	C421.191315,773.874023 431.097839,767.512451 435.703369,757.454773 
	C441.006104,765.815308 445.762451,773.005310 450.110107,780.434387 
	C450.962250,781.890564 450.232758,784.272400 450.232758,786.228516 
	C454.695923,786.228516 459.747223,786.228516 465.085602,786.228516 
	C463.063141,784.394470 461.000519,783.137817 459.783142,781.316223 
	C453.771301,772.320923 447.943054,763.201233 442.178131,754.044800 
	C441.602264,753.130188 441.328125,751.258423 441.864075,750.527466 
	C448.660400,741.257751 453.375702,730.327209 463.400177,723.310303 
	C459.047577,723.310303 454.900269,723.310303 451.702057,723.310303 
	C452.026581,725.603577 453.253296,728.180420 452.446136,729.603760 
	C448.572601,736.433655 444.149170,742.951843 439.449066,750.320618 
	C434.712921,742.709167 430.424316,736.179565 426.597107,729.389832 
	C425.731384,727.854004 426.469788,725.414001 426.469788,723.249084 
	C422.078827,723.249084 416.895508,723.249084 411.231750,723.249084 
	C413.188965,724.860046 414.697418,726.101685 416.670258,727.896606 
M496.656555,769.361511 
	C497.487915,764.850037 500.080200,762.911926 504.700684,763.667175 
	C506.161438,763.906067 507.688538,763.749878 509.185303,763.756165 
	C523.644226,763.816833 523.733704,763.785889 528.374268,777.692383 
	C529.237061,780.278015 529.056824,783.211731 529.378540,786.174316 
	C532.837463,786.174316 537.490601,786.174316 541.637146,786.174316 
	C539.972595,783.483521 537.949219,781.041748 536.812439,778.240234 
	C529.687012,760.679993 522.764771,743.037415 515.756348,725.429565 
	C515.139160,723.879028 514.386597,722.382385 513.276550,719.933167 
	C512.160889,722.273804 511.524628,723.399902 511.069519,724.594971 
	C505.510986,739.191406 500.094421,753.843323 494.385651,768.380493 
	C491.966644,774.540344 488.948395,780.464844 486.283264,786.319031 
	C488.554016,786.319031 492.097137,786.319031 496.953247,786.319031 
	C491.848633,783.178772 493.186462,779.451721 494.383911,775.762329 
	C494.999634,773.865051 495.698090,771.994629 496.656555,769.361511 
M821.815857,740.059204 
	C820.503418,743.477661 819.306763,746.945984 817.857727,750.305481 
	C812.676453,762.318726 810.131348,775.498779 801.909668,786.215881 
	C805.531311,786.215881 809.052551,786.215881 813.227722,786.215881 
	C807.985352,782.598572 810.013306,778.534424 811.291870,774.648254 
	C814.889221,763.714539 814.923096,763.725708 826.046875,763.724792 
	C840.019836,763.723633 840.140686,763.682312 844.731995,777.107178 
	C845.685669,779.895508 845.376526,783.115723 845.658936,786.242981 
	C849.359741,786.242981 854.076843,786.242981 858.236023,786.242981 
	C856.518311,783.490662 854.390869,780.962524 853.213379,778.050293 
	C846.165771,760.619202 839.340881,743.098145 832.428101,725.612549 
	C831.798706,724.020569 831.076050,722.465454 829.757080,719.412659 
	C826.799438,727.054932 824.425842,733.188110 821.815857,740.059204 
M207.130447,766.421570 
	C204.182297,773.244324 203.137070,781.003845 196.630524,786.273071 
	C200.840378,786.273071 204.378830,786.273071 208.595078,786.273071 
	C203.240112,781.859375 205.908081,777.409546 207.341766,773.128296 
	C210.506256,763.678528 210.566895,763.698853 220.590042,763.710938 
	C235.282593,763.728638 235.376099,763.695801 240.299744,777.725403 
	C241.204422,780.303162 241.006226,783.267883 241.346619,786.318848 
	C244.819260,786.318848 249.379364,786.318848 253.421524,786.318848 
	C251.575684,783.105652 249.349808,780.082031 247.984253,776.710083 
	C241.173996,759.893433 234.597092,742.982422 227.915192,726.113647 
	C227.227386,724.377258 226.388336,722.700867 225.044754,719.722778 
	C218.805634,735.992310 213.109039,750.847046 207.130447,766.421570 
M289.555389,786.562012 
	C298.208527,786.555481 306.863861,786.645142 315.512695,786.448792 
	C316.971283,786.415710 319.277191,785.470276 319.675415,784.388367 
	C320.720673,781.548340 320.929047,778.400208 321.470856,775.374878 
	C316.482544,784.026672 308.504028,784.767334 300.070099,784.485718 
	C298.407532,784.430115 296.728027,784.264282 295.082977,784.424011 
	C290.903015,784.829529 289.611328,782.928650 289.649536,778.902649 
	C289.798157,763.261353 289.587860,747.616211 289.800049,731.976379 
	C289.840820,728.970703 291.185120,725.982727 291.886902,723.152527 
	C288.321869,723.152527 284.050385,723.152527 280.564148,723.152527 
	C281.132751,726.403809 282.109833,729.507690 282.145966,732.622437 
	C282.311920,746.931946 282.333221,761.246216 282.130402,775.554871 
	C282.078827,779.193298 281.015289,782.817383 280.396545,786.570557 
	C282.619995,786.570557 285.601135,786.570557 289.555389,786.562012 
M1006.745728,775.398743 
	C1006.230530,778.958130 1005.715332,782.517456 1005.189758,786.148804 
	C1008.285400,786.148804 1012.413086,786.148804 1015.677795,786.148804 
	C1015.070007,783.242249 1014.070801,780.615173 1014.043701,777.978149 
	C1013.891846,763.149170 1013.870056,748.316589 1014.054199,733.488342 
	C1014.096802,730.058899 1015.116333,726.641541 1015.664734,723.348389 
	C1012.324768,723.348389 1008.200745,723.348389 1004.963684,723.348389 
	C1005.594421,726.403870 1006.624573,729.161560 1006.657959,731.931335 
	C1006.828857,746.093323 1006.742615,760.258362 1006.745728,775.398743 
M762.872803,858.455017 
	C761.603760,866.621033 764.373169,872.442383 770.657471,874.818542 
	C777.804321,877.520874 785.479797,874.519165 788.196594,867.959412 
	C791.180237,860.755188 788.278931,852.587830 781.741028,849.786621 
	C774.068115,846.499084 766.631409,849.639404 762.872803,858.455017 
M661.547241,866.418396 
	C661.547241,869.339478 661.547241,872.260559 661.547241,875.416809 
	C669.561523,874.945007 677.727234,877.427856 682.366028,869.086609 
	C685.172852,864.039551 684.944092,858.662781 681.516724,854.020508 
	C676.395691,847.084473 668.905884,849.161255 661.533508,849.141785 
	C661.533508,854.874146 661.533508,860.159180 661.547241,866.418396 
M489.956146,850.465576 
	C485.404816,855.604919 486.360199,859.900940 492.622833,862.277222 
	C494.948547,863.159668 497.496735,863.619690 499.604553,864.852173 
	C500.903839,865.611816 502.556885,867.734497 502.278442,868.767334 
	C501.851868,870.349487 499.968170,872.546570 498.574738,872.643677 
	C495.938904,872.827393 493.200226,871.752808 490.528564,871.101379 
	C489.412750,870.829224 488.358917,870.302734 486.753296,869.693054 
	C488.434814,875.004272 495.741821,877.556396 500.998871,874.775635 
	C503.121887,873.652588 505.488129,870.763794 505.555969,868.609619 
	C505.623230,866.474609 503.331848,863.738586 501.347137,862.213135 
	C499.347015,860.675903 496.294647,860.586914 494.005341,859.318298 
	C492.532715,858.502319 491.605438,856.702148 490.433746,855.343079 
	C492.151642,854.042908 493.722565,852.041443 495.629211,851.641846 
	C497.498138,851.250122 499.700287,852.525635 501.773193,852.994385 
	C502.677826,853.198975 503.624817,853.216370 505.219543,853.392395 
	C501.260590,848.309021 497.002289,847.527161 489.956146,850.465576 
M314.500000,862.087036 
	C331.326141,862.088501 348.152252,862.090576 364.978394,862.091248 
	C381.666412,862.091980 398.354431,862.091370 415.042450,862.091370 
	C415.029297,861.586121 415.016174,861.080811 415.003021,860.575562 
	C372.827545,860.575562 330.652100,860.575562 288.476654,860.575562 
	C288.467773,861.079041 288.458893,861.582458 288.450012,862.085938 
	C296.799988,862.085938 305.149994,862.085938 314.500000,862.087036 
M950.500000,860.020569 
	C919.616150,860.020569 888.732300,860.020569 857.848450,860.020569 
	C857.853333,860.530518 857.858154,861.040466 857.863037,861.550415 
	C900.064270,861.550415 942.265442,861.550415 984.466675,861.550415 
	C984.475037,861.040466 984.483459,860.530518 984.491821,860.020569 
	C973.494568,860.020569 962.497253,860.020569 950.500000,860.020569 
M619.231628,853.779297 
	C619.217529,857.440247 619.287781,861.103943 619.169617,864.761536 
	C618.989563,870.338318 616.338928,873.065735 611.379333,872.974854 
	C606.683472,872.888855 604.235413,870.253967 604.051758,864.790527 
	C603.906433,860.468140 604.077881,856.134155 603.894043,851.814453 
	C603.850403,850.790283 602.947327,849.802673 602.439636,848.798279 
	C601.910339,848.933411 601.381104,849.068604 600.851807,849.203735 
	C600.851807,854.643188 600.709045,860.087402 600.888062,865.520996 
	C601.109070,872.228333 605.028503,875.801758 611.776733,875.796326 
	C618.529358,875.790894 622.114319,872.288574 622.338928,865.268433 
	C622.471924,861.112183 622.477844,856.944641 622.318359,852.790710 
	C622.269531,851.520142 621.481750,850.277954 621.032410,849.022766 
	C620.432068,850.304138 619.831726,851.585449 619.231628,853.779297 
M547.692505,851.761169 
	C551.002075,851.254272 551.487854,853.053101 551.420166,855.856567 
	C551.262512,862.383362 551.369873,868.916565 551.369873,875.447144 
	C552.159363,875.489075 552.948792,875.531006 553.738281,875.572998 
	C556.157104,868.044434 553.626282,859.866150 555.147705,852.255127 
	C558.228577,851.861389 560.981079,851.509644 563.733521,851.157837 
	C563.649048,850.606140 563.564514,850.054443 563.480042,849.502747 
	C556.459534,849.502747 549.439026,849.502747 542.418518,849.502747 
	C542.350525,849.985291 542.282532,850.467834 542.214539,850.950378 
	C543.739258,851.227722 545.263916,851.505127 547.692505,851.761169 
M942.982849,936.286682 
	C943.146851,933.151489 942.252502,931.360840 939.220032,933.261536 
	C938.361206,935.164612 937.157471,937.640320 935.943909,937.645142 
	C932.742371,937.657959 931.590820,935.107666 931.805908,932.061035 
	C932.102539,927.860291 934.501648,926.739868 942.577148,927.431152 
	C941.452515,925.595703 940.648071,922.941345 939.622131,922.852722 
	C936.144836,922.552490 929.817566,928.023438 929.298645,931.115540 
	C928.430603,936.288452 931.698364,939.268311 935.784973,940.293030 
	C937.765869,940.789673 940.530151,938.162048 942.982849,936.286682 
M446.769531,941.893555 
	C446.665466,941.987549 446.561401,942.081543 446.457336,942.175537 
	C446.606445,942.129578 446.757843,942.090027 446.904236,942.036621 
	C449.380676,941.134155 451.856598,940.230042 455.629456,938.852905 
	C452.496948,938.182068 450.893768,937.838806 448.992706,937.431702 
	C450.658478,935.311462 451.966003,933.647095 453.015045,932.311890 
	C451.242065,931.040100 449.791229,929.999390 448.340363,928.958679 
	C450.565552,927.982727 452.790710,927.006836 454.811981,926.120300 
	C452.698486,925.382324 450.026611,924.449463 447.089142,923.423828 
	C444.414429,926.619629 444.001373,936.710815 446.769531,941.893555 
M605.466675,928.228516 
	C606.367920,932.846008 600.660461,938.854309 609.007996,941.829285 
	C608.998230,941.837158 609.422913,941.320557 609.967773,941.097534 
	C611.057617,940.651611 612.213379,940.366577 613.341858,940.015076 
	C613.355103,940.874817 613.368347,941.734497 613.381531,942.594238 
	C613.364807,942.520569 613.348083,942.446960 613.291870,942.199463 
	C614.205505,941.420532 615.170166,940.598206 616.136475,939.771484 
	C614.619507,935.875366 616.210144,931.434021 612.874634,927.606995 
	C610.104858,924.429016 608.531067,923.714661 605.466675,928.228516 
M521.151123,942.529419 
	C521.893127,941.921875 522.561279,941.178040 523.389282,940.728943 
	C528.651306,937.874573 530.326782,930.958130 526.427917,924.362549 
	C526.270447,927.752258 526.174194,930.155029 526.042969,932.555786 
	C525.911438,934.963257 526.579346,937.814819 522.672668,937.966003 
	C518.444763,938.129578 518.989624,935.061646 518.786682,932.472717 
	C518.593811,930.011414 518.437012,927.547363 518.204346,924.229675 
	C514.821960,928.507690 515.683777,937.643616 518.760315,940.162903 
	C519.571411,940.827087 520.011902,941.948547 520.595642,942.876953 
	C520.642639,942.951782 520.479858,943.158508 520.414612,943.303894 
	C520.528137,943.148499 520.641602,942.993103 521.151123,942.529419 
M963.962830,935.299377 
	C965.240051,936.889832 966.517273,938.480225 968.482178,940.927063 
	C968.482178,934.858215 968.482178,930.191467 968.482178,925.524719 
	C965.507812,932.533081 965.280396,932.568420 959.896301,926.793823 
	C959.782776,926.672119 959.693420,926.471008 959.558594,926.435242 
	C958.588257,926.177185 957.609131,925.952332 956.632751,925.717041 
	C956.607422,926.539490 956.573059,927.361816 956.558533,928.184448 
	C956.505554,931.175842 956.398315,934.168335 956.447205,937.158203 
	C956.462158,938.068115 956.914124,938.970764 957.165955,939.876709 
	C957.574280,939.848694 957.982666,939.820618 958.390991,939.792542 
	C958.761597,937.473450 959.132202,935.154297 959.658325,931.861877 
	C961.301086,933.087219 962.378052,933.890503 963.962830,935.299377 
M385.529327,934.938049 
	C386.550903,934.679626 387.572479,934.421204 388.606812,934.159546 
	C389.126831,936.605896 389.559174,938.639648 389.991486,940.673401 
	C390.340179,940.651001 390.688843,940.628601 391.037537,940.606201 
	C391.037537,935.253296 391.037537,929.900391 391.037537,924.547485 
	C390.756470,924.490845 390.475403,924.434204 390.194305,924.377502 
	C389.645569,926.346497 389.096832,928.315430 388.503540,930.444092 
	C386.108521,930.444092 383.708069,930.444092 381.410553,930.444092 
	C381.094635,928.185242 380.836853,926.342041 380.579071,924.498779 
	C380.291077,924.528503 380.003082,924.558228 379.715088,924.587952 
	C379.715088,929.644165 379.715088,934.700378 379.715088,939.756592 
	C380.058838,939.764954 380.402588,939.773315 380.746338,939.781677 
	C380.950592,937.890320 381.154816,935.998901 381.406128,933.671570 
	C382.758270,934.170471 383.786957,934.549988 385.529327,934.938049 
M315.096283,936.665161 
	C313.457520,932.664307 311.818787,928.663452 310.180054,924.662659 
	C309.738373,924.741211 309.296722,924.819763 308.855042,924.898315 
	C306.819977,929.688721 304.784912,934.479187 302.749817,939.269592 
	C303.087036,939.817932 303.424255,940.366211 303.761475,940.914551 
	C308.123444,931.067871 312.681427,938.644653 317.494690,940.438049 
	C316.440643,938.860779 315.912994,938.071228 315.096283,936.665161 
M736.535522,924.639282 
	C736.378845,924.435913 736.222168,924.232544 736.065491,924.029114 
	C735.978516,924.166626 735.885559,924.300720 735.805359,924.442078 
	C732.957886,929.466248 734.682739,934.576599 734.670837,940.578491 
	C738.833313,936.124268 738.833313,936.124268 745.443787,940.173096 
	C744.042175,937.634216 743.087524,935.904968 742.808594,935.399719 
	C743.621765,932.197205 744.977051,929.852905 744.420593,928.123962 
	C743.958191,926.687256 741.294067,925.880676 739.508667,924.988342 
	C738.832031,924.650085 737.884827,924.853149 736.535522,924.639282 
M364.981842,927.317261 
	C361.972137,923.752563 358.555054,923.569641 355.086212,926.787781 
	C351.867401,929.773865 351.847321,935.379150 355.163116,938.385132 
	C356.615692,939.701965 358.302277,940.760742 359.893951,941.945129 
	C361.790161,940.635193 363.649384,939.350830 365.508606,938.066467 
	C364.132538,937.416992 363.202911,938.023743 362.395416,937.890503 
	C360.229553,937.533203 357.294586,937.502869 356.216064,936.126892 
	C355.169495,934.791748 355.590576,931.813171 356.174835,929.789490 
	C357.647522,924.688721 361.599915,927.983032 364.981842,927.317261 
M661.776611,932.831055 
	C661.776611,935.142700 661.776611,937.454346 661.776611,939.766052 
	C662.283630,939.795288 662.790649,939.824524 663.297729,939.853760 
	C663.525635,936.701904 663.753601,933.550049 664.055115,929.381287 
	C667.490601,933.664368 670.103516,936.921936 673.525513,941.188171 
	C673.525513,934.851318 673.525513,930.252075 673.525513,925.652832 
	C673.185364,925.615479 672.845154,925.578125 672.505005,925.540771 
	C672.202393,927.501282 671.899780,929.461731 671.308411,933.292664 
	C667.878723,930.039429 665.287537,927.581543 662.549377,924.984253 
	C662.238953,925.734497 661.929443,926.157593 661.906006,926.595947 
	C661.808960,928.412781 661.798340,930.234192 661.776611,932.831055 
M893.300659,925.026245 
	C889.694702,928.653748 889.909851,930.128052 894.009216,932.849304 
	C895.521057,933.852966 896.646790,935.438171 897.948608,936.758118 
	C896.243103,937.069092 894.516907,937.299622 892.841858,937.729370 
	C892.141724,937.908997 891.550171,938.511780 890.909241,938.922180 
	C891.323181,939.371094 891.657349,939.977783 892.167725,940.236145 
	C893.239075,940.778137 894.403015,941.137024 896.299988,941.868347 
	C897.243408,940.230652 900.342041,937.238464 899.826721,935.129211 
	C899.212341,932.614685 895.499939,930.857117 892.212708,927.964844 
	C895.262329,927.435608 897.285889,927.084473 899.309448,926.733337 
	C899.373108,926.371948 899.436707,926.010559 899.500305,925.649170 
	C897.615234,925.384888 895.730164,925.120605 893.300659,925.026245 
M574.624023,933.090759 
	C573.699036,932.403625 572.729248,931.768250 571.860657,931.015991 
	C570.788147,930.087280 569.799744,929.061401 567.950134,927.285461 
	C571.772095,926.914734 573.913208,926.707031 576.054321,926.499329 
	C576.027832,926.125000 576.001282,925.750671 575.974792,925.376343 
	C573.203003,925.376343 570.431274,925.376343 567.156433,925.376343 
	C567.156433,928.311462 567.140747,930.935120 567.159363,933.558533 
	C567.215820,941.530579 567.739563,941.880432 575.619690,939.267639 
	C573.885437,938.182556 572.151245,937.097412 570.417053,936.012329 
	C571.624756,935.121277 572.832458,934.230286 574.624023,933.090759 
M805.964355,935.745056 
	C806.967896,932.434692 808.371643,934.021301 809.598022,935.518921 
	C810.848999,937.046631 811.940125,938.705139 813.101196,940.306396 
	C813.455627,940.059326 813.810059,939.812195 814.164490,939.565125 
	C813.229248,937.778992 812.294006,935.992798 812.030334,935.489136 
	C812.788879,932.076050 814.402893,929.234436 813.589722,927.601624 
	C811.562378,923.530762 807.531494,924.986267 804.139771,925.311340 
	C804.139771,930.405579 804.139771,935.074280 804.139771,939.742981 
	C804.499084,939.784485 804.858459,939.825989 805.217773,939.867432 
	C805.474243,938.728210 805.730652,937.588928 805.964355,935.745056 
M542.831360,933.366760 
	C542.831360,935.519775 542.831360,937.672729 542.831360,939.825745 
	C543.369629,939.851013 543.907898,939.876343 544.446228,939.901611 
	C544.733643,938.014771 545.021057,936.127991 545.308472,934.241150 
	C545.929077,933.730042 546.549622,933.218872 547.170166,932.707764 
	C548.591431,935.441956 550.012695,938.176208 551.434937,940.912231 
	C552.096436,936.579651 553.086426,933.620178 552.796326,930.792053 
	C552.593506,928.814758 551.040222,926.354614 549.350830,925.334961 
	C547.817261,924.409363 545.284607,925.139099 542.830811,925.139099 
	C542.830811,927.989441 542.830811,930.283569 542.831360,933.366760 
M724.463684,859.543579 
	C723.997314,856.054321 725.401428,852.266724 722.706665,849.055420 
	C721.871460,857.668884 721.860046,866.220154 721.960938,874.770081 
	C721.962769,874.925659 723.304321,875.065369 724.465820,875.303894 
	C724.465820,870.101746 724.465820,865.314026 724.463684,859.543579 
M777.265076,926.667175 
	C774.307678,929.446350 773.748657,933.164978 775.746094,936.148804 
	C777.151550,938.248718 780.480408,940.161926 782.928162,940.134949 
	C785.113342,940.110962 788.501099,937.687622 789.122131,935.643677 
	C789.888306,933.121826 789.171082,929.301941 787.601379,927.114929 
	C785.208862,923.781616 781.328857,923.981628 777.265076,926.667175 
M853.984131,937.136719 
	C855.880127,933.617859 856.490723,929.663757 853.130676,927.219910 
	C850.611755,925.387756 846.881592,925.221069 843.382629,924.225220 
	C843.382629,930.410095 843.382629,935.094543 843.382629,941.201294 
	C847.336121,939.812134 850.432678,938.724060 853.984131,937.136719 
M338.613586,932.150696 
	C340.190247,925.697754 337.570862,923.818298 329.514343,925.668213 
	C329.514343,930.276428 329.514343,934.886963 329.514343,939.497437 
	C329.811096,939.524353 330.107819,939.551331 330.404572,939.578308 
	C330.753784,937.790161 331.102997,936.002014 331.753723,932.669983 
	C334.641693,935.568237 336.787781,937.721924 338.820801,939.762207 
	C338.585266,937.265686 338.370300,934.987305 338.613586,932.150696 
M716.663452,940.060181 
	C718.006226,939.883850 719.348938,939.707520 720.691711,939.531250 
	C720.626343,939.121277 720.560974,938.711365 720.495667,938.301453 
	C718.386047,938.182617 716.276428,938.063782 713.869202,937.928223 
	C713.996948,936.129211 714.095825,934.735962 714.186584,933.458374 
	C716.234985,933.223694 717.862183,933.037231 720.062012,932.785217 
	C718.064209,930.145203 712.308289,932.744995 714.402344,927.266724 
	C716.466980,926.976501 718.480347,926.693481 720.493713,926.410461 
	C720.468384,926.082520 720.443115,925.754517 720.417847,925.426575 
	C717.687134,925.426575 714.956421,925.426575 711.914246,925.426575 
	C711.914246,929.440979 712.066162,933.074219 711.868347,936.688416 
	C711.695862,939.841553 713.405334,940.295044 716.663452,940.060181 
M868.995667,929.651550 
	C868.995667,933.061462 868.995667,936.471313 868.995667,940.341248 
	C872.272217,940.101379 874.812866,939.915405 878.438049,939.649963 
	C875.397644,937.204651 869.160156,940.274719 871.465210,933.825012 
	C873.234741,933.438599 874.875427,933.080322 876.516113,932.722046 
	C876.509033,932.416809 876.501953,932.111633 876.494873,931.806396 
	C874.828735,931.476929 873.162537,931.147400 871.450745,930.808838 
	C869.150696,924.275024 876.475769,928.499390 877.496399,925.567383 
	C870.307922,924.189026 869.620911,924.451965 868.995667,929.651550 
M427.684326,938.533325 
	C428.585541,934.024902 424.102692,927.818359 433.226440,925.406250 
	C428.307800,925.406250 424.813232,925.406250 421.318634,925.406250 
	C421.274567,925.645081 421.230499,925.883911 421.186401,926.122742 
	C422.657593,926.520569 424.128754,926.918396 425.821289,927.376038 
	C425.821289,930.903564 425.744843,934.213074 425.894073,937.512268 
	C425.919922,938.083923 426.900879,938.612366 427.684326,938.533325 
M498.761536,931.575989 
	C497.680511,927.794495 500.212799,926.608093 503.022064,925.487915 
	C499.528198,925.487915 496.034302,925.487915 492.540436,925.487915 
	C492.522675,925.737610 492.504944,925.987366 492.487213,926.237061 
	C493.817078,926.711426 495.146912,927.185791 496.414246,927.637878 
	C496.614258,931.805237 496.803406,935.746033 496.992554,939.686829 
	C497.582031,939.678589 498.171478,939.670349 498.760956,939.662109 
	C498.760956,937.272278 498.760956,934.882507 498.761536,931.575989 
M691.963318,937.937073 
	C692.266785,938.531311 692.570312,939.125549 692.873840,939.719788 
	C693.205261,939.658752 693.536743,939.597717 693.868225,939.536682 
	C693.868225,935.489624 693.868225,931.442566 693.868225,927.604614 
	C695.803223,926.952698 697.138977,926.502625 698.474670,926.052612 
	C698.395508,925.814941 698.316284,925.577271 698.237061,925.339600 
	C694.640259,925.339600 691.043518,925.339600 687.446777,925.339600 
	C687.420654,925.610657 687.394592,925.881775 687.368469,926.152832 
	C688.835693,926.564514 690.302917,926.976196 691.964600,927.442383 
	C691.964600,930.760315 691.964600,933.907593 691.963318,937.937073 
M915.842834,930.699646 
	C915.688843,928.916077 915.534790,927.132507 915.380798,925.348938 
	C915.022095,925.385071 914.663391,925.421143 914.304688,925.457214 
	C914.304688,930.172302 914.304688,934.887390 914.304688,939.602478 
	C914.817383,939.610168 915.330017,939.617798 915.842712,939.625427 
	C915.842712,936.951538 915.842712,934.277649 915.842834,930.699646 
M759.042664,932.511353 
	C759.042664,934.994934 759.042664,937.478455 759.042664,939.962036 
	C759.543884,939.935181 760.045044,939.908386 760.546265,939.881531 
	C760.546265,935.114197 760.546265,930.346863 760.546265,925.579529 
	C760.045044,925.563782 759.543823,925.548035 759.042603,925.532288 
	C759.042603,927.552979 759.042603,929.573669 759.042664,932.511353 
M646.798279,938.780029 
	C646.798279,934.380859 646.798279,929.981750 646.798279,925.582581 
	C646.026611,925.635925 645.254883,925.689270 644.483215,925.742615 
	C645.094482,930.321472 645.705811,934.900391 646.798279,938.780029 
M405.936035,929.775574 
	C405.936035,933.039307 405.936035,936.303040 405.936035,939.566772 
	C406.368591,939.533081 406.801117,939.499390 407.233673,939.465698 
	C407.233673,934.815125 407.233673,930.164551 407.233673,925.513977 
	C406.914246,925.520142 406.594818,925.526245 406.275391,925.532410 
	C406.165466,926.648315 406.055542,927.764221 405.936035,929.775574 
M650.602905,723.793762 
	C650.703247,723.727051 650.803589,723.660278 650.903931,723.593506 
	C650.825928,723.501770 650.756592,723.348083 650.667480,723.335632 
	C650.578003,723.323181 650.468933,723.451477 650.602905,723.793762 
z"/>
<path fill="#5E564B" opacity="1.000000" stroke="#5E564B" stroke-width="8" stroke-linejoin="miter" stroke-linecap="butt" paint-order="stroke fill" 
	d="
M556.786377,367.927277 
	C565.865906,344.136932 574.940491,320.344696 584.048645,296.565338 
	C584.317688,295.862823 584.939087,295.295288 585.976196,293.864777 
	C588.091736,299.102539 589.958496,303.632324 591.756042,308.189392 
	C607.696106,348.599365 623.674561,388.994446 639.462585,429.463806 
	C640.765991,432.804932 642.629700,433.481598 645.768250,433.486816 
	C663.923645,433.517029 682.111877,433.028717 700.227661,433.938293 
	C748.545471,436.364227 785.423767,470.064972 792.818054,518.024536 
	C797.113892,545.886841 793.942017,572.715393 778.846558,597.005066 
	C761.404297,625.070740 735.360840,639.487671 702.620056,641.380859 
	C687.337036,642.264526 671.973145,641.824280 656.645752,641.853027 
	C624.486450,641.913330 592.326965,641.895203 560.167603,641.874634 
	C558.335938,641.873474 556.504517,641.561523 554.703308,640.286072 
	C602.985474,638.811890 651.251221,639.252075 700.493958,638.920349 
	C697.026001,629.910339 694.016541,621.873230 690.849609,613.898621 
	C667.871216,556.036072 644.816956,498.203430 621.969421,440.289276 
	C620.588440,436.788879 618.858154,435.946198 615.431152,435.995300 
	C603.148865,436.171448 590.862488,436.064331 578.577698,436.064331 
	C578.503357,435.411560 578.429077,434.758789 578.354736,434.106049 
	C581.435730,433.890961 584.513916,433.577728 587.598572,433.486755 
	C591.094421,433.383606 594.596191,433.486359 598.095398,433.487030 
	C601.427979,433.487671 604.760498,433.468658 608.093079,433.464569 
	C611.555481,433.460358 615.017944,433.463684 619.230286,433.463684 
	C604.909912,397.387238 590.869141,362.015167 576.229309,325.133820 
	C570.302368,340.437042 564.872070,354.458069 558.923218,368.607727 
	C557.865173,368.466644 557.325745,368.196960 556.786377,367.927277 
M750.134460,611.598145 
	C752.892090,607.445190 756.221313,603.560791 758.318481,599.097473 
	C778.021851,557.162598 777.806458,515.193481 756.032654,474.289276 
	C744.633362,452.874664 726.111572,439.420105 701.377991,436.889862 
	C689.169189,435.640900 676.765869,436.256561 664.449646,436.107086 
	C657.350891,436.020935 650.250183,436.091461 642.026123,436.091461 
	C668.453003,502.528961 694.544312,568.122681 720.718628,633.925232 
	C732.789307,629.012939 742.034912,621.648560 750.134460,611.598145 
z"/>
<path fill="none" opacity="1.000000" stroke="none" 
	d="
M946.529663,725.041016 
	C946.529663,725.041016 946.497742,725.004028 946.891357,725.065796 
	C956.461487,726.312439 963.112610,731.138428 966.783325,739.543030 
	C971.572266,750.507996 971.316711,761.621582 965.994446,772.339966 
	C962.613708,779.148438 956.975342,783.418091 949.214294,784.153320 
	C945.261719,784.527832 941.255981,784.306946 937.277954,784.455383 
	C933.519226,784.595581 932.110657,783.085938 932.157166,779.147644 
	C932.357605,762.179810 932.245728,745.208313 932.299194,728.238403 
	C932.302673,727.130188 932.736511,726.023315 933.438721,724.952393 
	C938.114807,725.006409 942.322205,725.023682 946.529663,725.041016 
z"/>
<path fill="none" opacity="1.000000" stroke="none" 
	d="
M665.522522,722.959595 
	C667.938049,723.641907 670.353638,724.324158 673.552002,725.016235 
	C684.379028,725.794189 691.604492,730.723083 695.533936,739.987061 
	C700.213928,751.020752 699.828796,762.054504 694.362305,772.742371 
	C691.045105,779.228149 685.660706,783.247498 678.342163,784.012024 
	C673.903992,784.475647 669.394592,784.273926 664.916748,784.335815 
	C662.033936,784.375671 660.805969,782.988281 660.827576,780.032349 
	C660.961304,761.739380 660.994995,743.445618 661.505493,725.121643 
	C663.140198,724.380615 664.331360,723.670105 665.522522,722.959595 
z"/>
<path fill="#645B52" opacity="1.000000" stroke="#645B52" stroke-width="8" stroke-linejoin="miter" stroke-linecap="butt" paint-order="stroke fill" 
	d="
M556.576538,368.191864 
	C557.325745,368.196960 557.865173,368.466644 558.680908,368.858093 
	C550.895996,390.117767 542.892517,411.277893 534.761597,432.388885 
	C517.652283,476.811340 500.417999,521.185669 483.357788,565.626892 
	C477.061066,582.029602 482.433228,589.731506 499.992767,590.069458 
	C502.706940,590.121643 505.419067,590.278931 508.132141,590.387634 
	C508.114319,590.984314 508.096466,591.580933 508.078613,592.177612 
	C486.600952,592.177612 465.123260,592.177612 443.645599,592.177612 
	C443.608246,591.650513 443.570892,591.123413 443.533569,590.596313 
	C444.997284,590.417419 446.458557,590.107117 447.925140,590.079651 
	C466.720642,589.726868 472.166473,586.195496 478.954132,568.678223 
	C495.730042,525.383728 512.277100,482.000641 528.992126,438.682434 
	C538.036682,415.242798 547.236816,391.863159 556.576538,368.191864 
z"/>
<path fill="#645B52" opacity="1.000000" stroke="#645B52" stroke-width="8" stroke-linejoin="miter" stroke-linecap="butt" paint-order="stroke fill" 
	d="
M764.264099,760.592407 
	C768.031677,766.522827 771.412781,772.270508 775.185669,777.748474 
	C777.289734,780.803528 780.045288,783.409851 782.320618,786.005493 
	C777.337158,787.572388 772.681091,786.177490 769.042786,780.900818 
	C765.646179,775.974731 762.754944,770.701233 759.614685,765.597107 
	C754.475525,757.243958 752.795898,756.563171 742.268250,758.846558 
	C743.378296,767.737061 740.181946,777.047302 744.552246,786.177124 
	C740.835327,786.177124 736.671936,786.177124 733.156677,786.177124 
	C733.713196,782.861572 734.762756,779.371887 734.805786,775.869934 
	C734.983887,761.377930 734.959229,746.880798 734.760498,732.388916 
	C734.718567,729.331726 733.628540,726.288879 733.065308,723.459656 
	C741.112488,723.459656 750.113586,722.819519 758.982483,723.628418 
	C769.134644,724.554260 774.894104,731.283630 774.897156,740.259399 
	C774.899048,745.878113 772.523071,750.220459 767.935181,753.336060 
	C765.898132,754.719360 763.695923,755.859497 761.324585,757.253418 
	C762.331848,758.381775 763.186646,759.339355 764.264099,760.592407 
M751.321899,724.910095 
	C748.412842,724.910095 745.503845,724.910095 742.466309,724.910095 
	C742.466309,735.746216 742.466309,745.647095 742.466309,755.493469 
	C757.533936,757.967163 765.793945,753.718811 767.050964,743.062439 
	C768.299438,732.478760 762.826843,725.775940 751.321899,724.910095 
z"/>
<path fill="#655C53" opacity="1.000000" stroke="#655C53" stroke-width="8" stroke-linejoin="miter" stroke-linecap="butt" paint-order="stroke fill" 
	d="
M661.061890,725.152161 
	C660.994995,743.445618 660.961304,761.739380 660.827576,780.032349 
	C660.805969,782.988281 662.033936,784.375671 664.916748,784.335815 
	C669.394592,784.273926 673.903992,784.475647 678.342163,784.012024 
	C685.660706,783.247498 691.045105,779.228149 694.362305,772.742371 
	C699.828796,762.054504 700.213928,751.020752 695.533936,739.987061 
	C691.604492,730.723083 684.379028,725.794189 673.905090,725.032043 
	C674.480103,724.370178 675.490601,723.112549 676.488770,723.122314 
	C693.281006,723.286560 706.355286,736.442261 706.741760,753.393250 
	C707.166504,772.021240 695.243958,785.266418 676.613892,786.290710 
	C667.997009,786.764465 659.332397,786.371521 651.541138,786.371521 
	C652.125183,782.673950 653.182678,778.883484 653.242065,775.077454 
	C653.449890,761.761353 653.389587,748.439148 653.260254,735.120972 
	C653.222412,731.227661 652.615906,727.339844 652.233765,723.041260 
	C654.504700,723.041260 657.291931,723.041260 660.541382,723.442749 
	C661.022949,724.280273 661.042419,724.716187 661.061890,725.152161 
z"/>
<path fill="#61584F" opacity="1.000000" stroke="#61584F" stroke-width="8" stroke-linejoin="miter" stroke-linecap="butt" paint-order="stroke fill" 
	d="
M932.970093,724.915771 
	C932.736511,726.023315 932.302673,727.130188 932.299194,728.238403 
	C932.245728,745.208313 932.357605,762.179810 932.157166,779.147644 
	C932.110657,783.085938 933.519226,784.595581 937.277954,784.455383 
	C941.255981,784.306946 945.261719,784.527832 949.214294,784.153320 
	C956.975342,783.418091 962.613708,779.148438 965.994446,772.339966 
	C971.316711,761.621582 971.572266,750.507996 966.783325,739.543030 
	C963.112610,731.138428 956.461487,726.312439 946.873657,725.083008 
	C947.600647,724.471619 948.784912,723.335510 949.870605,723.422974 
	C966.362244,724.751465 977.800293,737.263184 977.999756,753.999634 
	C978.207520,771.424194 967.118896,784.694580 950.339783,786.041931 
	C941.099243,786.783936 931.750305,786.174744 923.108215,786.174744 
	C923.681519,782.946594 924.801392,779.437744 924.843750,775.915833 
	C925.021729,761.110535 924.901978,746.301331 924.819824,731.493896 
	C924.809875,729.688782 924.368408,727.886108 924.040405,725.292603 
	C923.973877,724.051636 923.993896,723.600342 924.013855,723.149048 
	C926.706909,723.117859 929.399902,723.086670 932.536133,723.405151 
	C932.976196,724.141785 932.973145,724.528748 932.970093,724.915771 
z"/>
<path fill="#655C53" opacity="1.000000" stroke="#655C53" stroke-width="8" stroke-linejoin="miter" stroke-linecap="butt" paint-order="stroke fill" 
	d="
M568.337280,726.137573 
	C567.107361,725.088806 566.123840,724.316040 564.942627,723.387878 
	C571.869690,721.728699 576.393005,723.513367 580.748718,729.290100 
	C591.458984,743.494873 603.120056,756.982849 614.409729,770.750061 
	C615.013062,771.485779 615.717529,772.138672 616.934448,773.418701 
	C617.145630,771.691223 617.379700,770.658142 617.381775,769.624573 
	C617.406311,757.471497 617.603699,745.312439 617.258179,733.169128 
	C617.164551,729.879883 615.401733,726.638062 614.398376,723.352783 
	C616.481934,723.352783 619.965271,723.352783 622.348083,723.352783 
	C621.566650,726.950867 620.037842,730.889465 619.968872,734.853394 
	C619.694031,750.663208 619.873718,766.481018 619.884827,782.295837 
	C619.885986,783.884033 619.884949,785.472290 619.884949,787.060486 
	C619.483521,787.245239 619.082092,787.429932 618.680664,787.614685 
	C603.748352,769.510376 588.816040,751.406067 573.258057,732.543152 
	C573.083496,734.630737 572.901794,735.816345 572.897827,737.002625 
	C572.855530,749.655273 572.622620,762.313782 572.952820,774.957275 
	C573.052002,778.751465 574.742432,782.504150 575.725525,786.360901 
	C573.475159,786.360901 570.073059,786.360901 565.853638,786.360901 
	C570.929810,782.529541 570.446411,777.438599 570.430908,772.430542 
	C570.393433,760.278259 570.555359,748.123596 570.350830,735.974731 
	C570.296997,732.778687 569.200989,729.600098 568.337280,726.137573 
z"/>
<path fill="#635A51" opacity="1.000000" stroke="#635A51" stroke-width="8" stroke-linejoin="miter" stroke-linecap="butt" paint-order="stroke fill" 
	d="
M416.438080,727.619995 
	C414.697418,726.101685 413.188965,724.860046 411.231750,723.249084 
	C416.895508,723.249084 422.078827,723.249084 426.469788,723.249084 
	C426.469788,725.414001 425.731384,727.854004 426.597107,729.389832 
	C430.424316,736.179565 434.712921,742.709167 439.449066,750.320618 
	C444.149170,742.951843 448.572601,736.433655 452.446136,729.603760 
	C453.253296,728.180420 452.026581,725.603577 451.702057,723.310303 
	C454.900269,723.310303 459.047577,723.310303 463.400177,723.310303 
	C453.375702,730.327209 448.660400,741.257751 441.864075,750.527466 
	C441.328125,751.258423 441.602264,753.130188 442.178131,754.044800 
	C447.943054,763.201233 453.771301,772.320923 459.783142,781.316223 
	C461.000519,783.137817 463.063141,784.394470 465.085602,786.228516 
	C459.747223,786.228516 454.695923,786.228516 450.232758,786.228516 
	C450.232758,784.272400 450.962250,781.890564 450.110107,780.434387 
	C445.762451,773.005310 441.006104,765.815308 435.703369,757.454773 
	C431.097839,767.512451 421.191315,773.874023 421.729950,786.251404 
	C419.075470,786.251404 415.122131,786.251404 410.986633,786.251404 
	C420.901428,778.050659 426.539764,766.992859 433.559906,757.036194 
	C434.152252,756.196167 433.380737,753.899536 432.612549,752.675110 
	C427.393097,744.356262 422.004333,736.143616 416.438080,727.619995 
z"/>
<path fill="#675E55" opacity="1.000000" stroke="#675E55" stroke-width="8" stroke-linejoin="miter" stroke-linecap="butt" paint-order="stroke fill" 
	d="
M496.507874,769.736816 
	C495.698090,771.994629 494.999634,773.865051 494.383911,775.762329 
	C493.186462,779.451721 491.848633,783.178772 496.953247,786.319031 
	C492.097137,786.319031 488.554016,786.319031 486.283264,786.319031 
	C488.948395,780.464844 491.966644,774.540344 494.385651,768.380493 
	C500.094421,753.843323 505.510986,739.191406 511.069519,724.594971 
	C511.524628,723.399902 512.160889,722.273804 513.276550,719.933167 
	C514.386597,722.382385 515.139160,723.879028 515.756348,725.429565 
	C522.764771,743.037415 529.687012,760.679993 536.812439,778.240234 
	C537.949219,781.041748 539.972595,783.483521 541.637146,786.174316 
	C537.490601,786.174316 532.837463,786.174316 529.378540,786.174316 
	C529.056824,783.211731 529.237061,780.278015 528.374268,777.692383 
	C523.733704,763.785889 523.644226,763.816833 509.185303,763.756165 
	C507.688538,763.749878 506.161438,763.906067 504.700684,763.667175 
	C500.080200,762.911926 497.487915,764.850037 496.507874,769.736816 
M501.782562,755.373901 
	C501.164154,757.174622 500.545715,758.975403 499.803192,761.137451 
	C507.529816,761.137451 514.575073,761.137451 522.227112,761.137451 
	C518.360413,751.502136 514.675171,742.319153 510.539520,732.013672 
	C507.400726,740.415344 504.742401,747.531006 501.782562,755.373901 
z"/>
<path fill="#675E55" opacity="1.000000" stroke="#675E55" stroke-width="8" stroke-linejoin="miter" stroke-linecap="butt" paint-order="stroke fill" 
	d="
M821.934082,739.690247 
	C824.425842,733.188110 826.799438,727.054932 829.757080,719.412659 
	C831.076050,722.465454 831.798706,724.020569 832.428101,725.612549 
	C839.340881,743.098145 846.165771,760.619202 853.213379,778.050293 
	C854.390869,780.962524 856.518311,783.490662 858.236023,786.242981 
	C854.076843,786.242981 849.359741,786.242981 845.658936,786.242981 
	C845.376526,783.115723 845.685669,779.895508 844.731995,777.107178 
	C840.140686,763.682312 840.019836,763.723633 826.046875,763.724792 
	C814.923096,763.725708 814.889221,763.714539 811.291870,774.648254 
	C810.013306,778.534424 807.985352,782.598572 813.227722,786.215881 
	C809.052551,786.215881 805.531311,786.215881 801.909668,786.215881 
	C810.131348,775.498779 812.676453,762.318726 817.857727,750.305481 
	C819.306763,746.945984 820.503418,743.477661 821.934082,739.690247 
M829.632996,737.982666 
	C828.942322,736.385620 828.251648,734.788635 827.115967,732.162659 
	C823.344116,742.302551 819.928040,751.486023 816.388611,761.001099 
	C824.157532,761.001099 831.018982,761.001099 838.528381,761.001099 
	C835.504578,753.192871 832.698059,745.945618 829.632996,737.982666 
z"/>
<path fill="#675E55" opacity="1.000000" stroke="#675E55" stroke-width="8" stroke-linejoin="miter" stroke-linecap="butt" paint-order="stroke fill" 
	d="
M207.271454,766.061707 
	C213.109039,750.847046 218.805634,735.992310 225.044754,719.722778 
	C226.388336,722.700867 227.227386,724.377258 227.915192,726.113647 
	C234.597092,742.982422 241.173996,759.893433 247.984253,776.710083 
	C249.349808,780.082031 251.575684,783.105652 253.421524,786.318848 
	C249.379364,786.318848 244.819260,786.318848 241.346619,786.318848 
	C241.006226,783.267883 241.204422,780.303162 240.299744,777.725403 
	C235.376099,763.695801 235.282593,763.728638 220.590042,763.710938 
	C210.566895,763.698853 210.506256,763.678528 207.341766,773.128296 
	C205.908081,777.409546 203.240112,781.859375 208.595078,786.273071 
	C204.378830,786.273071 200.840378,786.273071 196.630524,786.273071 
	C203.137070,781.003845 204.182297,773.244324 207.271454,766.061707 
M212.172180,760.055725 
	C212.576736,760.478638 212.977036,761.265442 213.386429,761.270142 
	C219.990204,761.347046 226.595139,761.324524 234.112198,761.324524 
	C230.200180,751.389954 226.598770,742.244141 222.547073,731.954834 
	C218.867767,741.858032 215.637039,750.553772 212.172180,760.055725 
z"/>
<path fill="#645B52" opacity="1.000000" stroke="#645B52" stroke-width="8" stroke-linejoin="miter" stroke-linecap="butt" paint-order="stroke fill" 
	d="
M357.003571,725.009766 
	C357.003571,733.950867 357.003571,742.891907 357.003571,752.528748 
	C364.649475,751.540588 373.239044,755.937195 379.481689,746.969727 
	C379.481689,751.609863 379.481689,756.076477 379.481689,759.234009 
	C376.773743,758.001587 373.486816,755.773438 369.900604,755.069153 
	C365.910706,754.285522 361.648254,754.889648 356.700897,754.889648 
	C356.700897,764.043762 356.612183,772.941223 356.834625,781.830994 
	C356.857513,782.745850 358.737946,784.378113 359.757019,784.378601 
	C365.732605,784.381165 371.896698,784.803650 377.619385,783.466980 
	C381.583099,782.541138 384.938324,779.010071 388.522736,776.670959 
	C388.148315,778.684875 387.794647,781.631409 386.965302,784.437317 
	C386.702820,785.325317 385.175964,786.423340 384.217224,786.433472 
	C371.609985,786.566650 359.000885,786.522156 347.011627,786.522156 
	C347.750916,783.429810 348.992371,780.568787 349.029602,777.692139 
	C349.227722,762.378113 349.156067,747.060059 349.085999,731.743774 
	C349.077026,729.780090 348.533844,727.818848 348.110291,725.136475 
	C347.980743,723.987549 347.979004,723.558655 347.977264,723.129700 
	C350.683563,723.101440 353.389893,723.073181 356.543152,723.419312 
	C356.994598,724.198975 356.999084,724.604370 357.003571,725.009766 
z"/>
<path fill="#635A51" opacity="1.000000" stroke="#635A51" stroke-width="8" stroke-linejoin="miter" stroke-linecap="butt" paint-order="stroke fill" 
	d="
M1075.018921,723.217346 
	C1077.959351,723.217346 1080.899780,723.217346 1084.764404,723.217346 
	C1073.597534,743.687622 1062.758301,763.557434 1051.252319,784.649292 
	C1063.962280,783.065247 1077.026611,788.806519 1086.541138,774.572266 
	C1085.729126,779.250000 1085.153931,782.563843 1084.515625,786.241333 
	C1070.503174,786.241333 1056.640137,786.241333 1041.930908,786.241333 
	C1052.887207,766.345398 1063.575439,746.936096 1074.770996,727.153809 
	C1075.191772,725.592957 1075.105347,724.405151 1075.018921,723.217346 
z"/>
<path fill="#675E55" opacity="1.000000" stroke="#675E55" stroke-width="8" stroke-linejoin="miter" stroke-linecap="butt" paint-order="stroke fill" 
	d="
M289.068848,786.566284 
	C285.601135,786.570557 282.619995,786.570557 280.396545,786.570557 
	C281.015289,782.817383 282.078827,779.193298 282.130402,775.554871 
	C282.333221,761.246216 282.311920,746.931946 282.145966,732.622437 
	C282.109833,729.507690 281.132751,726.403809 280.564148,723.152527 
	C284.050385,723.152527 288.321869,723.152527 291.886902,723.152527 
	C291.185120,725.982727 289.840820,728.970703 289.800049,731.976379 
	C289.587860,747.616211 289.798157,763.261353 289.649536,778.902649 
	C289.611328,782.928650 290.903015,784.829529 295.082977,784.424011 
	C296.728027,784.264282 298.407532,784.430115 300.070099,784.485718 
	C308.504028,784.767334 316.482544,784.026672 321.470856,775.374878 
	C320.929047,778.400208 320.720673,781.548340 319.675415,784.388367 
	C319.277191,785.470276 316.971283,786.415710 315.512695,786.448792 
	C306.863861,786.645142 298.208527,786.555481 289.068848,786.566284 
z"/>
<path fill="#61584F" opacity="1.000000" stroke="#61584F" stroke-width="8" stroke-linejoin="miter" stroke-linecap="butt" paint-order="stroke fill" 
	d="
M1006.746033,774.910522 
	C1006.742615,760.258362 1006.828857,746.093323 1006.657959,731.931335 
	C1006.624573,729.161560 1005.594421,726.403870 1004.963684,723.348389 
	C1008.200745,723.348389 1012.324768,723.348389 1015.664734,723.348389 
	C1015.116333,726.641541 1014.096802,730.058899 1014.054199,733.488342 
	C1013.870056,748.316589 1013.891846,763.149170 1014.043701,777.978149 
	C1014.070801,780.615173 1015.070007,783.242249 1015.677795,786.148804 
	C1012.413086,786.148804 1008.285400,786.148804 1005.189758,786.148804 
	C1005.715332,782.517456 1006.230530,778.958130 1006.746033,774.910522 
z"/>
<path fill="#6C635A" opacity="1.000000" stroke="#6C635A" stroke-width="8" stroke-linejoin="miter" stroke-linecap="butt" paint-order="stroke fill" 
	d="
M762.953003,858.070801 
	C766.631409,849.639404 774.068115,846.499084 781.741028,849.786621 
	C788.278931,852.587830 791.180237,860.755188 788.196594,867.959412 
	C785.479797,874.519165 777.804321,877.520874 770.657471,874.818542 
	C764.373169,872.442383 761.603760,866.621033 762.953003,858.070801 
M765.965698,859.133972 
	C765.860779,859.956604 765.668579,860.778748 765.664673,861.601868 
	C765.630920,868.658386 770.154480,873.313721 776.650269,872.946899 
	C782.819580,872.598511 787.060913,866.872314 786.064575,860.164307 
	C785.339050,855.279297 782.394714,852.437866 777.624939,851.578491 
	C772.640564,850.680359 769.019653,852.901550 765.965698,859.133972 
z"/>
<path fill="#675E55" opacity="1.000000" stroke="#675E55" stroke-width="8" stroke-linejoin="miter" stroke-linecap="butt" paint-order="stroke fill" 
	d="
M661.540405,865.931335 
	C661.533508,860.159180 661.533508,854.874146 661.533508,849.141785 
	C668.905884,849.161255 676.395691,847.084473 681.516724,854.020508 
	C684.944092,858.662781 685.172852,864.039551 682.366028,869.086609 
	C677.727234,877.427856 669.561523,874.945007 661.547241,875.416809 
	C661.547241,872.260559 661.547241,869.339478 661.540405,865.931335 
M680.898315,860.020874 
	C678.455322,852.544312 673.688110,850.275085 665.052551,852.458679 
	C665.052551,859.131592 665.052551,865.789795 665.052551,872.387573 
	C677.027466,873.555237 680.778015,870.748779 680.898315,860.020874 
z"/>
<path fill="#6C635A" opacity="1.000000" stroke="#6C635A" stroke-width="8" stroke-linejoin="miter" stroke-linecap="butt" paint-order="stroke fill" 
	d="
M490.272156,850.256226 
	C497.002289,847.527161 501.260590,848.309021 505.219543,853.392395 
	C503.624817,853.216370 502.677826,853.198975 501.773193,852.994385 
	C499.700287,852.525635 497.498138,851.250122 495.629211,851.641846 
	C493.722565,852.041443 492.151642,854.042908 490.433716,855.343079 
	C491.605438,856.702148 492.532715,858.502319 494.005341,859.318298 
	C496.294647,860.586914 499.347015,860.675903 501.347137,862.213135 
	C503.331848,863.738586 505.623230,866.474609 505.555969,868.609619 
	C505.488129,870.763794 503.121887,873.652588 500.998871,874.775635 
	C495.741821,877.556396 488.434814,875.004272 486.753296,869.693054 
	C488.358917,870.302734 489.412750,870.829224 490.528564,871.101379 
	C493.200226,871.752808 495.938904,872.827393 498.574738,872.643677 
	C499.968170,872.546570 501.851868,870.349487 502.278442,868.767334 
	C502.556885,867.734497 500.903839,865.611816 499.604553,864.852173 
	C497.496735,863.619690 494.948547,863.159668 492.622833,862.277222 
	C486.360199,859.900940 485.404816,855.604919 490.272156,850.256226 
z"/>
<path fill="#675E55" opacity="1.000000" stroke="#675E55" stroke-width="8" stroke-linejoin="miter" stroke-linecap="butt" paint-order="stroke fill" 
	d="
M314.000000,862.086487 
	C305.149994,862.085938 296.799988,862.085938 288.450012,862.085938 
	C288.458893,861.582458 288.467773,861.079041 288.476654,860.575562 
	C330.652100,860.575562 372.827545,860.575562 415.003021,860.575562 
	C415.016174,861.080811 415.029297,861.586121 415.042450,862.091370 
	C398.354431,862.091370 381.666412,862.091980 364.978394,862.091248 
	C348.152252,862.090576 331.326141,862.088501 314.000000,862.086487 
z"/>
<path fill="#6C635A" opacity="1.000000" stroke="#6C635A" stroke-width="8" stroke-linejoin="miter" stroke-linecap="butt" paint-order="stroke fill" 
	d="
M951.000000,860.020569 
	C962.497253,860.020569 973.494568,860.020569 984.491821,860.020569 
	C984.483459,860.530518 984.475037,861.040466 984.466675,861.550415 
	C942.265442,861.550415 900.064270,861.550415 857.863037,861.550415 
	C857.858154,861.040466 857.853333,860.530518 857.848450,860.020569 
	C888.732300,860.020569 919.616150,860.020569 951.000000,860.020569 
z"/>
<path fill="#6C635A" opacity="1.000000" stroke="#6C635A" stroke-width="8" stroke-linejoin="miter" stroke-linecap="butt" paint-order="stroke fill" 
	d="
M619.231445,853.323059 
	C619.831726,851.585449 620.432068,850.304138 621.032410,849.022766 
	C621.481750,850.277954 622.269531,851.520142 622.318359,852.790710 
	C622.477844,856.944641 622.471924,861.112183 622.338928,865.268433 
	C622.114319,872.288574 618.529358,875.790894 611.776733,875.796326 
	C605.028503,875.801758 601.109070,872.228333 600.888062,865.520996 
	C600.709045,860.087402 600.851807,854.643188 600.851807,849.203735 
	C601.381104,849.068604 601.910339,848.933411 602.439636,848.798279 
	C602.947327,849.802673 603.850403,850.790283 603.894043,851.814453 
	C604.077881,856.134155 603.906433,860.468140 604.051758,864.790527 
	C604.235413,870.253967 606.683472,872.888855 611.379333,872.974854 
	C616.338928,873.065735 618.989563,870.338318 619.169617,864.761536 
	C619.287781,861.103943 619.217529,857.440247 619.231445,853.323059 
z"/>
<path fill="#6C635A" opacity="1.000000" stroke="#6C635A" stroke-width="8" stroke-linejoin="miter" stroke-linecap="butt" paint-order="stroke fill" 
	d="
M547.240601,851.771851 
	C545.263916,851.505127 543.739258,851.227722 542.214539,850.950378 
	C542.282532,850.467834 542.350525,849.985291 542.418518,849.502747 
	C549.439026,849.502747 556.459534,849.502747 563.480042,849.502747 
	C563.564514,850.054443 563.649048,850.606140 563.733521,851.157837 
	C560.981079,851.509644 558.228577,851.861389 555.147705,852.255127 
	C553.626282,859.866150 556.157104,868.044434 553.738281,875.572998 
	C552.948792,875.531006 552.159363,875.489075 551.369873,875.447144 
	C551.369873,868.916565 551.262512,862.383362 551.420166,855.856567 
	C551.487854,853.053101 551.002075,851.254272 547.240601,851.771851 
z"/>
<path fill="#867D74" opacity="1.000000" stroke="#867D74" stroke-width="8" stroke-linejoin="miter" stroke-linecap="butt" paint-order="stroke fill" 
	d="
M942.961304,936.617798 
	C940.530151,938.162048 937.765869,940.789673 935.784973,940.293030 
	C931.698364,939.268311 928.430603,936.288452 929.298645,931.115540 
	C929.817566,928.023438 936.144836,922.552490 939.622131,922.852722 
	C940.648071,922.941345 941.452515,925.595703 942.577148,927.431152 
	C934.501648,926.739868 932.102539,927.860291 931.805908,932.061035 
	C931.590820,935.107666 932.742371,937.657959 935.943909,937.645142 
	C937.157471,937.640320 938.361206,935.164612 939.220032,933.261536 
	C942.252502,931.360840 943.146851,933.151489 942.961304,936.617798 
M940.353516,935.945984 
	C940.412415,935.740662 940.471313,935.535278 940.530151,935.329956 
	C940.337830,935.403198 940.145569,935.476440 940.353516,935.945984 
z"/>
<path fill="#867D74" opacity="1.000000" stroke="#867D74" stroke-width="8" stroke-linejoin="miter" stroke-linecap="butt" paint-order="stroke fill" 
	d="
M446.795837,941.634155 
	C444.001373,936.710815 444.414429,926.619629 447.089142,923.423828 
	C450.026611,924.449463 452.698486,925.382324 454.811981,926.120300 
	C452.790710,927.006836 450.565552,927.982727 448.340363,928.958679 
	C449.791229,929.999390 451.242065,931.040100 453.015045,932.311890 
	C451.966003,933.647095 450.658478,935.311462 448.992706,937.431702 
	C450.893768,937.838806 452.496948,938.182068 455.629456,938.852905 
	C451.856598,940.230042 449.380676,941.134155 446.904236,942.036621 
	C446.757843,942.090027 446.606445,942.129578 446.457336,942.175537 
	C446.561401,942.081543 446.665466,941.987549 446.795837,941.634155 
z"/>
<path fill="#867D74" opacity="1.000000" stroke="#867D74" stroke-width="8" stroke-linejoin="miter" stroke-linecap="butt" paint-order="stroke fill" 
	d="
M605.524841,927.848816 
	C608.531067,923.714661 610.104858,924.429016 612.874634,927.606995 
	C616.210144,931.434021 614.619507,935.875366 616.135620,939.773682 
	C615.170166,940.598206 614.205505,941.420532 613.291870,942.199463 
	C613.348083,942.446960 613.364807,942.520569 613.381531,942.594238 
	C613.368347,941.734497 613.355103,940.874817 613.341858,940.015076 
	C612.213379,940.366577 611.057617,940.651611 609.967773,941.097534 
	C609.422913,941.320557 608.998230,941.837158 609.007996,941.829285 
	C600.660461,938.854309 606.367920,932.846008 605.524841,927.848816 
M609.811951,934.759705 
	C608.738647,934.623047 607.665283,934.486450 606.591919,934.349792 
	C606.572693,935.417358 606.235962,937.266541 606.591614,937.410950 
	C607.836609,937.916565 609.320374,937.834229 610.713440,937.975098 
	C610.572937,937.078186 610.432434,936.181335 609.811951,934.759705 
M612.725525,934.174683 
	C612.750305,933.377563 612.775085,932.580444 612.799927,931.783264 
	C612.234558,931.883057 611.669189,931.982910 611.103882,932.082825 
	C611.311951,932.724121 611.520020,933.365417 612.725525,934.174683 
z"/>
<path fill="#867D74" opacity="1.000000" stroke="#867D74" stroke-width="8" stroke-linejoin="miter" stroke-linecap="butt" paint-order="stroke fill" 
	d="
M520.953125,942.683533 
	C520.641602,942.993103 520.528137,943.148499 520.414612,943.303894 
	C520.479858,943.158508 520.642639,942.951782 520.595642,942.876953 
	C520.011902,941.948547 519.571411,940.827087 518.760315,940.162903 
	C515.683777,937.643616 514.821960,928.507690 518.204346,924.229675 
	C518.437012,927.547363 518.593811,930.011414 518.786682,932.472717 
	C518.989624,935.061646 518.444763,938.129578 522.672668,937.966003 
	C526.579346,937.814819 525.911438,934.963257 526.042969,932.555786 
	C526.174194,930.155029 526.270447,927.752258 526.427917,924.362549 
	C530.326782,930.958130 528.651306,937.874573 523.389282,940.728943 
	C522.561279,941.178040 521.893127,941.921875 520.953125,942.683533 
z"/>
<path fill="#867D74" opacity="1.000000" stroke="#867D74" stroke-width="8" stroke-linejoin="miter" stroke-linecap="butt" paint-order="stroke fill" 
	d="
M963.708862,934.996582 
	C962.378052,933.890503 961.301086,933.087219 959.658325,931.861877 
	C959.132202,935.154297 958.761597,937.473450 958.390991,939.792542 
	C957.982666,939.820618 957.574280,939.848694 957.165955,939.876709 
	C956.914124,938.970764 956.462158,938.068115 956.447205,937.158203 
	C956.398315,934.168335 956.505554,931.175842 956.558533,928.184448 
	C956.573059,927.361816 956.607422,926.539490 956.632751,925.717041 
	C957.609131,925.952332 958.588257,926.177185 959.558594,926.435242 
	C959.693420,926.471008 959.782776,926.672119 959.896301,926.793823 
	C965.280396,932.568420 965.507812,932.533081 968.482178,925.524719 
	C968.482178,930.191467 968.482178,934.858215 968.482178,940.927063 
	C966.517273,938.480225 965.240051,936.889832 963.708862,934.996582 
z"/>
<path fill="#867D74" opacity="1.000000" stroke="#867D74" stroke-width="8" stroke-linejoin="miter" stroke-linecap="butt" paint-order="stroke fill" 
	d="
M385.172485,934.933777 
	C383.786957,934.549988 382.758270,934.170471 381.406128,933.671570 
	C381.154816,935.998901 380.950592,937.890320 380.746338,939.781677 
	C380.402588,939.773315 380.058838,939.764954 379.715088,939.756592 
	C379.715088,934.700378 379.715088,929.644165 379.715088,924.587952 
	C380.003082,924.558228 380.291077,924.528503 380.579071,924.498779 
	C380.836853,926.342041 381.094635,928.185242 381.410553,930.444092 
	C383.708069,930.444092 386.108521,930.444092 388.503540,930.444092 
	C389.096832,928.315430 389.645569,926.346497 390.194305,924.377502 
	C390.475403,924.434204 390.756470,924.490845 391.037537,924.547485 
	C391.037537,929.900391 391.037537,935.253296 391.037537,940.606201 
	C390.688843,940.628601 390.340179,940.651001 389.991486,940.673401 
	C389.559174,938.639648 389.126831,936.605896 388.606812,934.159546 
	C387.572479,934.421204 386.550903,934.679626 385.172485,934.933777 
z"/>
<path fill="#867D74" opacity="1.000000" stroke="#867D74" stroke-width="8" stroke-linejoin="miter" stroke-linecap="butt" paint-order="stroke fill" 
	d="
M315.240784,936.973389 
	C315.912994,938.071228 316.440643,938.860779 317.494690,940.438049 
	C312.681427,938.644653 308.123444,931.067871 303.761475,940.914551 
	C303.424255,940.366211 303.087036,939.817932 302.749817,939.269592 
	C304.784912,934.479187 306.819977,929.688721 308.855042,924.898315 
	C309.296722,924.819763 309.738373,924.741211 310.180054,924.662659 
	C311.818787,928.663452 313.457520,932.664307 315.240784,936.973389 
z"/>
<path fill="#867D74" opacity="1.000000" stroke="#867D74" stroke-width="8" stroke-linejoin="miter" stroke-linecap="butt" paint-order="stroke fill" 
	d="
M736.798218,924.724365 
	C737.884827,924.853149 738.832031,924.650085 739.508667,924.988342 
	C741.294067,925.880676 743.958191,926.687256 744.420593,928.123962 
	C744.977051,929.852905 743.621765,932.197205 742.808594,935.399719 
	C743.087524,935.904968 744.042175,937.634216 745.443787,940.173096 
	C738.833313,936.124268 738.833313,936.124268 734.670837,940.578491 
	C734.682739,934.576599 732.957886,929.466248 735.805359,924.442078 
	C735.885559,924.300720 735.978516,924.166626 736.065491,924.029175 
	C736.222168,924.232544 736.378845,924.435913 736.798218,924.724365 
M742.835083,929.492676 
	C741.183777,928.393066 739.532471,927.293518 736.992188,925.601990 
	C736.992188,928.845459 736.992188,930.227234 736.992188,932.798218 
	C739.320007,931.781311 741.008789,931.043579 742.835083,929.492676 
z"/>
<path fill="#867D74" opacity="1.000000" stroke="#867D74" stroke-width="8" stroke-linejoin="miter" stroke-linecap="butt" paint-order="stroke fill" 
	d="
M479.999084,925.000854 
	C479.728821,925.852051 479.458527,926.703247 479.188263,927.554443 
	C479.010406,927.162231 478.832581,926.769958 478.654724,926.377747 
	C475.844360,927.381287 472.816315,928.033997 470.337524,929.571960 
	C469.426666,930.137024 469.143890,933.086487 469.733948,934.444580 
	C471.592499,938.722290 475.408234,938.476501 479.636444,937.136047 
	C476.131073,941.634644 475.393494,941.625916 467.080322,937.446533 
	C467.080322,936.705261 467.092743,935.894897 467.078430,935.085083 
	C466.915131,925.856262 470.141602,923.377869 479.698364,925.310608 
	C479.996887,924.996216 479.999084,925.000854 479.999084,925.000854 
z"/>
<path fill="#6C635A" opacity="1.000000" stroke="#6C635A" stroke-width="8" stroke-linejoin="miter" stroke-linecap="butt" paint-order="stroke fill" 
	d="
M1074.556885,723.124634 
	C1075.105347,724.405151 1075.191772,725.592957 1075.049194,726.905273 
	C1074.201416,726.387634 1073.579224,725.185974 1072.964600,725.189880 
	C1066.842773,725.228638 1060.546143,724.650757 1054.660156,725.921143 
	C1050.399170,726.840759 1046.683472,730.287170 1042.936768,732.482483 
	C1043.300903,730.211792 1043.853760,726.763794 1044.452148,723.031860 
	C1054.580078,723.031860 1064.337524,723.031860 1074.556885,723.124634 
z"/>
<path fill="#867D74" opacity="1.000000" stroke="#867D74" stroke-width="8" stroke-linejoin="miter" stroke-linecap="butt" paint-order="stroke fill" 
	d="
M364.744080,927.508667 
	C361.599915,927.983032 357.647522,924.688721 356.174835,929.789490 
	C355.590576,931.813171 355.169495,934.791748 356.216064,936.126892 
	C357.294586,937.502869 360.229553,937.533203 362.395416,937.890503 
	C363.202911,938.023743 364.132538,937.416992 365.508606,938.066467 
	C363.649384,939.350830 361.790161,940.635193 359.893951,941.945129 
	C358.302277,940.760742 356.615692,939.701965 355.163116,938.385132 
	C351.847321,935.379150 351.867401,929.773865 355.086212,926.787781 
	C358.555054,923.569641 361.972137,923.752563 364.744080,927.508667 
z"/>
<path fill="#867D74" opacity="1.000000" stroke="#867D74" stroke-width="8" stroke-linejoin="miter" stroke-linecap="butt" paint-order="stroke fill" 
	d="
M661.766357,932.442505 
	C661.798340,930.234192 661.808960,928.412781 661.906006,926.595947 
	C661.929443,926.157593 662.238953,925.734497 662.549377,924.984253 
	C665.287537,927.581543 667.878723,930.039429 671.308411,933.292664 
	C671.899780,929.461731 672.202393,927.501282 672.505005,925.540771 
	C672.845154,925.578125 673.185364,925.615479 673.525513,925.652832 
	C673.525513,930.252075 673.525513,934.851318 673.525513,941.188171 
	C670.103516,936.921936 667.490601,933.664368 664.055115,929.381287 
	C663.753601,933.550049 663.525635,936.701904 663.297729,939.853760 
	C662.790649,939.824524 662.283630,939.795288 661.776611,939.766052 
	C661.776611,937.454346 661.776611,935.142700 661.766357,932.442505 
z"/>
<path fill="#867D74" opacity="1.000000" stroke="#867D74" stroke-width="8" stroke-linejoin="miter" stroke-linecap="butt" paint-order="stroke fill" 
	d="
M893.572876,924.941284 
	C895.730164,925.120605 897.615234,925.384888 899.500305,925.649170 
	C899.436707,926.010559 899.373108,926.371948 899.309448,926.733337 
	C897.285889,927.084473 895.262329,927.435608 892.212708,927.964844 
	C895.499939,930.857117 899.212341,932.614685 899.826721,935.129211 
	C900.342041,937.238464 897.243408,940.230652 896.299988,941.868347 
	C894.403015,941.137024 893.239075,940.778137 892.167725,940.236145 
	C891.657349,939.977783 891.323181,939.371094 890.909241,938.922241 
	C891.550171,938.511780 892.141724,937.908997 892.841858,937.729370 
	C894.516907,937.299622 896.243103,937.069092 897.948608,936.758118 
	C896.646790,935.438171 895.521057,933.852966 894.009216,932.849304 
	C889.909851,930.128052 889.694702,928.653748 893.572876,924.941284 
z"/>
<path fill="#867D74" opacity="1.000000" stroke="#867D74" stroke-width="8" stroke-linejoin="miter" stroke-linecap="butt" paint-order="stroke fill" 
	d="
M574.332092,933.214966 
	C572.832458,934.230286 571.624756,935.121277 570.417053,936.012329 
	C572.151245,937.097412 573.885437,938.182556 575.619324,939.268188 
	C567.739563,941.880432 567.215820,941.530579 567.159363,933.558533 
	C567.140747,930.935120 567.156433,928.311462 567.156433,925.376343 
	C570.431274,925.376343 573.203003,925.376343 575.974792,925.376343 
	C576.001282,925.750671 576.027832,926.125000 576.054321,926.499329 
	C573.913208,926.707031 571.772095,926.914734 567.950134,927.285461 
	C569.799744,929.061401 570.788147,930.087280 571.860657,931.015991 
	C572.729248,931.768250 573.699036,932.403625 574.332092,933.214966 
z"/>
<path fill="#867D74" opacity="1.000000" stroke="#867D74" stroke-width="8" stroke-linejoin="miter" stroke-linecap="butt" paint-order="stroke fill" 
	d="
M805.975708,936.097351 
	C805.730652,937.588928 805.474243,938.728210 805.217773,939.867432 
	C804.858459,939.825989 804.499084,939.784485 804.139771,939.742981 
	C804.139771,935.074280 804.139771,930.405579 804.139771,925.311340 
	C807.531494,924.986267 811.562378,923.530762 813.589722,927.601624 
	C814.402893,929.234436 812.788879,932.076050 812.030334,935.489136 
	C812.294006,935.992798 813.229248,937.778992 814.164490,939.565125 
	C813.810059,939.812195 813.455627,940.059326 813.101196,940.306396 
	C811.940125,938.705139 810.848999,937.046631 809.598022,935.518921 
	C808.371643,934.021301 806.967896,932.434692 805.975708,936.097351 
M806.032837,927.772705 
	C806.032837,929.161560 806.032837,930.550476 806.032837,931.939331 
	C806.447693,932.279785 806.862549,932.620178 807.277405,932.960571 
	C808.826172,931.803162 810.374878,930.645752 811.923645,929.488403 
	C810.151794,928.695068 808.379883,927.901733 806.032837,927.772705 
z"/>
<path fill="#867D74" opacity="1.000000" stroke="#867D74" stroke-width="8" stroke-linejoin="miter" stroke-linecap="butt" paint-order="stroke fill" 
	d="
M542.831055,932.972229 
	C542.830811,930.283569 542.830811,927.989441 542.830811,925.139099 
	C545.284607,925.139099 547.817261,924.409363 549.350830,925.334961 
	C551.040222,926.354614 552.593506,928.814758 552.796326,930.792053 
	C553.086426,933.620178 552.096436,936.579651 551.434937,940.912231 
	C550.012695,938.176208 548.591431,935.441956 547.170166,932.707764 
	C546.549622,933.218872 545.929077,933.730042 545.308472,934.241150 
	C545.021057,936.127991 544.733643,938.014771 544.446228,939.901611 
	C543.907898,939.876343 543.369629,939.851013 542.831360,939.825745 
	C542.831360,937.672729 542.831360,935.519775 542.831055,932.972229 
M550.512756,931.126953 
	C551.918884,925.813599 548.285217,927.116577 545.273804,927.070496 
	C545.273804,928.838989 545.273804,930.364319 545.273804,932.327515 
	C547.053955,932.086243 548.464600,931.895020 550.512756,931.126953 
z"/>
<path fill="#5E564B" opacity="1.000000" stroke="#5E564B" stroke-width="8" stroke-linejoin="miter" stroke-linecap="butt" paint-order="stroke fill" 
	d="
M724.464722,860.034973 
	C724.465820,865.314026 724.465820,870.101746 724.465820,875.303894 
	C723.304321,875.065369 721.962769,874.925659 721.960938,874.770081 
	C721.860046,866.220154 721.871460,857.668884 722.706665,849.055420 
	C725.401428,852.266724 723.997314,856.054321 724.464722,860.034973 
z"/>
<path fill="#6C635A" opacity="1.000000" stroke="#6C635A" stroke-width="8" stroke-linejoin="miter" stroke-linecap="butt" paint-order="stroke fill" 
	d="
M357.470093,725.033325 
	C356.999084,724.604370 356.994598,724.198975 356.988708,723.489502 
	C364.787628,723.090576 372.594757,723.158264 380.385468,722.833008 
	C384.351868,722.667358 386.320923,723.805725 385.958984,728.045166 
	C385.822144,729.648254 386.207031,731.295898 386.511658,734.667603 
	C381.239899,723.950317 372.627380,725.039917 364.414917,725.033203 
	C362.255493,725.031433 360.096039,725.048523 357.470093,725.033325 
z"/>
<path fill="#867D74" opacity="1.000000" stroke="#867D74" stroke-width="8" stroke-linejoin="miter" stroke-linecap="butt" paint-order="stroke fill" 
	d="
M777.534546,926.427917 
	C781.328857,923.981628 785.208862,923.781616 787.601379,927.114929 
	C789.171082,929.301941 789.888306,933.121826 789.122131,935.643677 
	C788.501099,937.687622 785.113342,940.110962 782.928162,940.134949 
	C780.480408,940.161926 777.151550,938.248718 775.746094,936.148804 
	C773.748657,933.164978 774.307678,929.446350 777.534546,926.427917 
M778.588562,937.051514 
	C781.597961,938.806641 784.996704,939.448059 786.702698,936.002625 
	C787.702759,933.982727 787.428101,930.422119 786.210571,928.530640 
	C785.384827,927.247742 781.542114,926.747314 779.725769,927.509888 
	C776.255737,928.966614 776.495300,932.425964 777.467834,935.638123 
	C777.559265,935.940308 777.813416,936.193237 778.588562,937.051514 
z"/>
<path fill="#867D74" opacity="1.000000" stroke="#867D74" stroke-width="8" stroke-linejoin="miter" stroke-linecap="butt" paint-order="stroke fill" 
	d="
M853.756714,937.386353 
	C850.432678,938.724060 847.336121,939.812134 843.382629,941.201294 
	C843.382629,935.094543 843.382629,930.410095 843.382629,924.225220 
	C846.881592,925.221069 850.611755,925.387756 853.130676,927.219910 
	C856.490723,929.663757 855.880127,933.617859 853.756714,937.386353 
M848.193909,926.912903 
	C847.111938,927.707825 845.232605,928.386780 845.097046,929.319275 
	C844.685364,932.150452 844.947937,935.079773 844.947937,937.907898 
	C849.074036,938.461182 852.163025,938.263489 853.063171,934.177429 
	C853.827393,930.708740 853.018250,927.911255 848.193909,926.912903 
z"/>
<path fill="#867D74" opacity="1.000000" stroke="#867D74" stroke-width="8" stroke-linejoin="miter" stroke-linecap="butt" paint-order="stroke fill" 
	d="
M338.384460,932.429810 
	C338.370300,934.987305 338.585266,937.265686 338.820801,939.762207 
	C336.787781,937.721924 334.641693,935.568237 331.753723,932.669983 
	C331.102997,936.002014 330.753784,937.790161 330.404572,939.578308 
	C330.107819,939.551331 329.811096,939.524353 329.514343,939.497437 
	C329.514343,934.886963 329.514343,930.276428 329.514343,925.668213 
	C337.570862,923.818298 340.190247,925.697754 338.384460,932.429810 
M336.769897,927.865540 
	C335.003998,927.500793 333.238098,927.135986 331.472198,926.771179 
	C331.115784,927.245422 330.759338,927.719604 330.402924,928.193787 
	C331.341339,929.519958 332.036346,931.616821 333.270477,932.006531 
	C335.604736,932.743652 337.560181,931.725098 336.769897,927.865540 
z"/>
<path fill="#867D74" opacity="1.000000" stroke="#867D74" stroke-width="8" stroke-linejoin="miter" stroke-linecap="butt" paint-order="stroke fill" 
	d="
M716.272034,940.061096 
	C713.405334,940.295044 711.695862,939.841553 711.868347,936.688416 
	C712.066162,933.074219 711.914246,929.440979 711.914246,925.426575 
	C714.956421,925.426575 717.687134,925.426575 720.417847,925.426575 
	C720.443115,925.754517 720.468384,926.082520 720.493713,926.410461 
	C718.480347,926.693481 716.466980,926.976501 714.402344,927.266724 
	C712.308289,932.744995 718.064209,930.145203 720.062012,932.785217 
	C717.862183,933.037231 716.234985,933.223694 714.186584,933.458374 
	C714.095825,934.735962 713.996948,936.129211 713.869202,937.928223 
	C716.276428,938.063782 718.386047,938.182617 720.495667,938.301453 
	C720.560974,938.711365 720.626343,939.121277 720.691711,939.531250 
	C719.348938,939.707520 718.006226,939.883850 716.272034,940.061096 
z"/>
<path fill="#867D74" opacity="1.000000" stroke="#867D74" stroke-width="8" stroke-linejoin="miter" stroke-linecap="butt" paint-order="stroke fill" 
	d="
M868.991760,929.183716 
	C869.620911,924.451965 870.307922,924.189026 877.496399,925.567383 
	C876.475769,928.499390 869.150696,924.275024 871.450745,930.808838 
	C873.162537,931.147400 874.828735,931.476929 876.494873,931.806396 
	C876.501953,932.111633 876.509033,932.416809 876.516113,932.722046 
	C874.875427,933.080322 873.234741,933.438599 871.465210,933.825012 
	C869.160156,940.274719 875.397644,937.204651 878.438049,939.649963 
	C874.812866,939.915405 872.272217,940.101379 868.995667,940.341248 
	C868.995667,936.471313 868.995667,933.061462 868.991760,929.183716 
z"/>
<path fill="#6C635A" opacity="1.000000" stroke="#6C635A" stroke-width="8" stroke-linejoin="miter" stroke-linecap="butt" paint-order="stroke fill" 
	d="
M427.562500,938.847046 
	C426.900879,938.612366 425.919922,938.083923 425.894073,937.512268 
	C425.744843,934.213074 425.821289,930.903564 425.821289,927.376038 
	C424.128754,926.918396 422.657593,926.520569 421.186401,926.122742 
	C421.230499,925.883911 421.274567,925.645081 421.318634,925.406250 
	C424.813232,925.406250 428.307800,925.406250 433.226440,925.406250 
	C424.102692,927.818359 428.585541,934.024902 427.562500,938.847046 
z"/>
<path fill="#867D74" opacity="1.000000" stroke="#867D74" stroke-width="8" stroke-linejoin="miter" stroke-linecap="butt" paint-order="stroke fill" 
	d="
M498.761230,932.034302 
	C498.760956,934.882507 498.760956,937.272278 498.760956,939.662109 
	C498.171478,939.670349 497.582031,939.678589 496.992554,939.686829 
	C496.803406,935.746033 496.614258,931.805237 496.414246,927.637878 
	C495.146912,927.185791 493.817078,926.711426 492.487213,926.237061 
	C492.504944,925.987366 492.522675,925.737610 492.540436,925.487915 
	C496.034302,925.487915 499.528198,925.487915 503.022064,925.487915 
	C500.212799,926.608093 497.680511,927.794495 498.761230,932.034302 
z"/>
<path fill="#867D74" opacity="1.000000" stroke="#867D74" stroke-width="8" stroke-linejoin="miter" stroke-linecap="butt" paint-order="stroke fill" 
	d="
M691.963989,937.495972 
	C691.964600,933.907593 691.964600,930.760315 691.964600,927.442383 
	C690.302917,926.976196 688.835693,926.564514 687.368469,926.152832 
	C687.394592,925.881775 687.420654,925.610657 687.446777,925.339600 
	C691.043518,925.339600 694.640259,925.339600 698.237061,925.339600 
	C698.316284,925.577271 698.395508,925.814941 698.474670,926.052612 
	C697.138977,926.502625 695.803223,926.952698 693.868225,927.604614 
	C693.868225,931.442566 693.868225,935.489624 693.868225,939.536682 
	C693.536743,939.597717 693.205261,939.658752 692.873840,939.719788 
	C692.570312,939.125549 692.266785,938.531311 691.963989,937.495972 
z"/>
<path fill="#867D74" opacity="1.000000" stroke="#867D74" stroke-width="8" stroke-linejoin="miter" stroke-linecap="butt" paint-order="stroke fill" 
	d="
M915.842773,931.151733 
	C915.842712,934.277649 915.842712,936.951538 915.842712,939.625427 
	C915.330017,939.617798 914.817383,939.610168 914.304688,939.602478 
	C914.304688,934.887390 914.304688,930.172302 914.304688,925.457214 
	C914.663391,925.421143 915.022095,925.385071 915.380798,925.348938 
	C915.534790,927.132507 915.688843,928.916077 915.842773,931.151733 
z"/>
<path fill="#867D74" opacity="1.000000" stroke="#867D74" stroke-width="8" stroke-linejoin="miter" stroke-linecap="butt" paint-order="stroke fill" 
	d="
M759.042603,932.052856 
	C759.042603,929.573669 759.042603,927.552979 759.042603,925.532288 
	C759.543823,925.548035 760.045044,925.563782 760.546265,925.579529 
	C760.546265,930.346863 760.546265,935.114197 760.546265,939.881531 
	C760.045044,939.908386 759.543884,939.935181 759.042664,939.962036 
	C759.042664,937.478455 759.042664,934.994934 759.042603,932.052856 
z"/>
<path fill="#867D74" opacity="1.000000" stroke="#867D74" stroke-width="8" stroke-linejoin="miter" stroke-linecap="butt" paint-order="stroke fill" 
	d="
M646.557739,939.129639 
	C645.705811,934.900391 645.094482,930.321472 644.483215,925.742615 
	C645.254883,925.689270 646.026611,925.635925 646.798279,925.582581 
	C646.798279,929.981750 646.798279,934.380859 646.557739,939.129639 
z"/>
<path fill="#867D74" opacity="1.000000" stroke="#867D74" stroke-width="8" stroke-linejoin="miter" stroke-linecap="butt" paint-order="stroke fill" 
	d="
M405.940796,929.327881 
	C406.055542,927.764221 406.165466,926.648315 406.275391,925.532410 
	C406.594818,925.526245 406.914246,925.520142 407.233673,925.513977 
	C407.233673,930.164551 407.233673,934.815125 407.233673,939.465698 
	C406.801117,939.499390 406.368591,939.533081 405.936035,939.566772 
	C405.936035,936.303040 405.936035,933.039307 405.940796,929.327881 
z"/>
<path fill="#6C635A" opacity="1.000000" stroke="#6C635A" stroke-width="8" stroke-linejoin="miter" stroke-linecap="butt" paint-order="stroke fill" 
	d="
M933.438721,724.952393 
	C932.973145,724.528748 932.976196,724.141785 932.981201,723.464478 
	C937.661865,723.484314 942.340576,723.794434 946.774414,724.572754 
	C942.322205,725.023682 938.114807,725.006409 933.438721,724.952393 
z"/>
<path fill="#6C635A" opacity="1.000000" stroke="#6C635A" stroke-width="8" stroke-linejoin="miter" stroke-linecap="butt" paint-order="stroke fill" 
	d="
M661.505493,725.121643 
	C661.042419,724.716187 661.022949,724.280273 660.996338,723.517090 
	C662.196472,723.113037 663.403748,723.036194 665.066772,722.959473 
	C664.331360,723.670105 663.140198,724.380615 661.505493,725.121643 
z"/>
<path fill="#6C635A" opacity="1.000000" stroke="#6C635A" stroke-width="8" stroke-linejoin="miter" stroke-linecap="butt" paint-order="stroke fill" 
	d="
M347.775604,723.033447 
	C347.979004,723.558655 347.980743,723.987549 347.979340,724.738281 
	C347.310516,724.503845 346.644806,723.947632 345.979126,723.391479 
	C346.510712,723.240051 347.042328,723.088623 347.775604,723.033447 
z"/>
<path fill="#6C635A" opacity="1.000000" stroke="#6C635A" stroke-width="8" stroke-linejoin="miter" stroke-linecap="butt" paint-order="stroke fill" 
	d="
M923.700989,723.074341 
	C923.993896,723.600342 923.973877,724.051636 923.937012,724.841431 
	C923.742798,724.453125 923.565430,723.726379 923.700989,723.074341 
z"/>
<path fill="#867D74" opacity="1.000000" stroke="#867D74" stroke-width="8" stroke-linejoin="miter" stroke-linecap="butt" paint-order="stroke fill" 
	d="
M479.994934,924.990967 
	C480.275391,924.684021 480.566467,924.389221 480.826660,924.069397 
	C480.852417,924.037659 480.689575,923.852539 480.614258,923.738586 
	C480.361755,924.042542 480.109253,924.346558 479.927917,924.825684 
	C479.999084,925.000854 479.996887,924.996216 479.994934,924.990967 
z"/>
<path fill="#655C53" opacity="1.000000" stroke="#655C53" stroke-width="8" stroke-linejoin="miter" stroke-linecap="butt" paint-order="stroke fill" 
	d="
M650.485718,723.655884 
	C650.468933,723.451477 650.578003,723.323181 650.667480,723.335632 
	C650.756592,723.348083 650.825928,723.501770 650.903931,723.593506 
	C650.803589,723.660278 650.703247,723.727051 650.485718,723.655884 
z"/>
<path fill="none" opacity="1.000000" stroke="none" 
	d="
M749.898315,611.865234 
	C742.034912,621.648560 732.789307,629.012939 720.718628,633.925232 
	C694.544312,568.122681 668.453003,502.528961 642.026123,436.091461 
	C650.250183,436.091461 657.350891,436.020935 664.449646,436.107086 
	C676.765869,436.256561 689.169189,435.640900 701.377991,436.889862 
	C726.111572,439.420105 744.633362,452.874664 756.032654,474.289276 
	C777.806458,515.193481 778.021851,557.162598 758.318481,599.097473 
	C756.221313,603.560791 752.892090,607.445190 749.898315,611.865234 
z"/>
<path fill="none" opacity="1.000000" stroke="none" 
	d="
M751.776978,724.911194 
	C762.826843,725.775940 768.299438,732.478760 767.050964,743.062439 
	C765.793945,753.718811 757.533936,757.967163 742.466309,755.493469 
	C742.466309,745.647095 742.466309,735.746216 742.466309,724.910095 
	C745.503845,724.910095 748.412842,724.910095 751.776978,724.911194 
z"/>
<path fill="none" opacity="1.000000" stroke="none" 
	d="
M501.933319,755.010254 
	C504.742401,747.531006 507.400726,740.415344 510.539520,732.013672 
	C514.675171,742.319153 518.360413,751.502136 522.227112,761.137451 
	C514.575073,761.137451 507.529816,761.137451 499.803192,761.137451 
	C500.545715,758.975403 501.164154,757.174622 501.933319,755.010254 
z"/>
<path fill="none" opacity="1.000000" stroke="none" 
	d="
M829.762268,738.340515 
	C832.698059,745.945618 835.504578,753.192871 838.528381,761.001099 
	C831.018982,761.001099 824.157532,761.001099 816.388611,761.001099 
	C819.928040,751.486023 823.344116,742.302551 827.115967,732.162659 
	C828.251648,734.788635 828.942322,736.385620 829.762268,738.340515 
z"/>
<path fill="none" opacity="1.000000" stroke="none" 
	d="
M212.289246,759.652649 
	C215.637039,750.553772 218.867767,741.858032 222.547073,731.954834 
	C226.598770,742.244141 230.200180,751.389954 234.112198,761.324524 
	C226.595139,761.324524 219.990204,761.347046 213.386429,761.270142 
	C212.977036,761.265442 212.576736,760.478638 212.289246,759.652649 
z"/>
<path fill="none" opacity="1.000000" stroke="none" 
	d="
M766.078979,858.733154 
	C769.019653,852.901550 772.640564,850.680359 777.624939,851.578491 
	C782.394714,852.437866 785.339050,855.279297 786.064575,860.164307 
	C787.060913,866.872314 782.819580,872.598511 776.650269,872.946899 
	C770.154480,873.313721 765.630920,868.658386 765.664673,861.601868 
	C765.668579,860.778748 765.860779,859.956604 766.078979,858.733154 
z"/>
<path fill="none" opacity="1.000000" stroke="none" 
	d="
M680.947998,860.428711 
	C680.778015,870.748779 677.027466,873.555237 665.052551,872.387573 
	C665.052551,865.789795 665.052551,859.131592 665.052551,852.458679 
	C673.688110,850.275085 678.455322,852.544312 680.947998,860.428711 
z"/>
<path fill="none" opacity="1.000000" stroke="none" 
	d="
M940.153381,935.747803 
	C940.145569,935.476440 940.337830,935.403198 940.530151,935.329956 
	C940.471313,935.535278 940.412415,935.740662 940.153381,935.747803 
z"/>
<path fill="none" opacity="1.000000" stroke="none" 
	d="
M610.051941,935.022095 
	C610.432434,936.181335 610.572937,937.078186 610.713440,937.975098 
	C609.320374,937.834229 607.836609,937.916565 606.591614,937.410950 
	C606.235962,937.266541 606.572693,935.417358 606.591919,934.349792 
	C607.665283,934.486450 608.738647,934.623047 610.051941,935.022095 
z"/>
<path fill="none" opacity="1.000000" stroke="none" 
	d="
M612.226807,934.090698 
	C611.520020,933.365417 611.311951,932.724121 611.103882,932.082764 
	C611.669189,931.982910 612.234558,931.883057 612.799927,931.783325 
	C612.775085,932.580444 612.750305,933.377563 612.226807,934.090698 
z"/>
<path fill="none" opacity="1.000000" stroke="none" 
	d="
M742.766296,929.899292 
	C741.008789,931.043579 739.320007,931.781311 736.992188,932.798218 
	C736.992188,930.227234 736.992188,928.845459 736.992188,925.601990 
	C739.532471,927.293518 741.183777,928.393066 742.766296,929.899292 
z"/>
<path fill="none" opacity="1.000000" stroke="none" 
	d="
M806.320435,927.440552 
	C808.379883,927.901733 810.151794,928.695068 811.923645,929.488403 
	C810.374878,930.645752 808.826172,931.803162 807.277405,932.960571 
	C806.862549,932.620178 806.447693,932.279785 806.032837,931.939331 
	C806.032837,930.550476 806.032837,929.161560 806.320435,927.440552 
z"/>
<path fill="none" opacity="1.000000" stroke="none" 
	d="
M550.194031,931.415405 
	C548.464600,931.895020 547.053955,932.086243 545.273804,932.327515 
	C545.273804,930.364319 545.273804,928.838989 545.273804,927.070496 
	C548.285217,927.116577 551.918884,925.813599 550.194031,931.415405 
z"/>
<path fill="none" opacity="1.000000" stroke="none" 
	d="
M778.290283,936.760254 
	C777.813416,936.193237 777.559265,935.940308 777.467834,935.638123 
	C776.495300,932.425964 776.255737,928.966614 779.725769,927.509888 
	C781.542114,926.747314 785.384827,927.247742 786.210571,928.530640 
	C787.428101,930.422119 787.702759,933.982727 786.702698,936.002625 
	C784.996704,939.448059 781.597961,938.806641 778.290283,936.760254 
z"/>
<path fill="none" opacity="1.000000" stroke="none" 
	d="
M848.627258,926.938721 
	C853.018250,927.911255 853.827393,930.708740 853.063171,934.177429 
	C852.163025,938.263489 849.074036,938.461182 844.947937,937.907898 
	C844.947937,935.079773 844.685364,932.150452 845.097046,929.319275 
	C845.232605,928.386780 847.111938,927.707825 848.627258,926.938721 
z"/>
<path fill="none" opacity="1.000000" stroke="none" 
	d="
M336.980591,928.254028 
	C337.560181,931.725098 335.604736,932.743652 333.270477,932.006531 
	C332.036346,931.616821 331.341339,929.519958 330.402924,928.193787 
	C330.759338,927.719604 331.115784,927.245422 331.472198,926.771179 
	C333.238098,927.135986 335.003998,927.500793 336.980591,928.254028 
z"/>
</svg>